<svg width="33" height="24" viewBox="0 0 33 24" fill="none" xmlns="http://www.w3.org/2000/svg">
<g clip-path="url(#clip0_9_106)">
<path d="M7.7 0C6.63913 0 5.62172 0.421427 4.87157 1.17157C4.12143 1.92172 3.7 2.93913 3.7 4V8.96C4.21138 8.69834 4.7473 8.48772 5.3 8.3312V4C5.3 3.36348 5.55286 2.75303 6.00294 2.30294C6.45303 1.85286 7.06348 1.6 7.7 1.6H21.5667C22.2032 1.6 22.8137 1.85286 23.2638 2.30294C23.7139 2.75303 23.9667 3.36348 23.9667 4V15.2C23.9667 15.8365 23.7139 16.447 23.2638 16.8971C22.8137 17.3471 22.2032 17.6 21.5667 17.6H16.5294C16.4805 18.1413 16.3814 18.677 16.2334 19.2H21.5667C22.6276 19.2 23.645 18.7786 24.3952 18.0284C25.1453 17.2783 25.5667 16.2609 25.5667 15.2V13.6L29.4067 16.48C29.6444 16.6583 29.9271 16.7669 30.223 16.7935C30.519 16.8202 30.8165 16.764 31.0823 16.6311C31.348 16.4982 31.5716 16.2939 31.7278 16.0412C31.884 15.7884 31.9667 15.4971 31.9667 15.2V4C31.9667 3.70286 31.884 3.41159 31.7278 3.15883C31.5716 2.90607 31.348 2.7018 31.0823 2.56892C30.8165 2.43603 30.519 2.37978 30.223 2.40647C29.9271 2.43315 29.6444 2.54172 29.4067 2.72L25.5667 5.6V4C25.5667 2.93913 25.1453 1.92172 24.3952 1.17157C23.645 0.421427 22.6276 0 21.5667 0L7.7 0ZM25.5667 7.6L30.3667 4V15.2L25.5667 11.6V7.6ZM14.9 16.8C14.9 18.7096 14.1414 20.5409 12.7912 21.8912C11.4409 23.2414 9.60956 24 7.7 24C5.79044 24 3.95909 23.2414 2.60883 21.8912C1.25857 20.5409 0.5 18.7096 0.5 16.8C0.5 14.8904 1.25857 13.0591 2.60883 11.7088C3.95909 10.3586 5.79044 9.6 7.7 9.6C9.60956 9.6 11.4409 10.3586 12.7912 11.7088C14.1414 13.0591 14.9 14.8904 14.9 16.8ZM8.5 13.6C8.5 13.3878 8.41571 13.1843 8.26569 13.0343C8.11566 12.8843 7.91217 12.8 7.7 12.8C7.48783 12.8 7.28434 12.8843 7.13431 13.0343C6.98429 13.1843 6.9 13.3878 6.9 13.6V16H4.5C4.28783 16 4.08434 16.0843 3.93431 16.2343C3.78429 16.3843 3.7 16.5878 3.7 16.8C3.7 17.0122 3.78429 17.2157 3.93431 17.3657C4.08434 17.5157 4.28783 17.6 4.5 17.6H6.9V20C6.9 20.2122 6.98429 20.4157 7.13431 20.5657C7.28434 20.7157 7.48783 20.8 7.7 20.8C7.91217 20.8 8.11566 20.7157 8.26569 20.5657C8.41571 20.4157 8.5 20.2122 8.5 20V17.6H10.9C11.1122 17.6 11.3157 17.5157 11.4657 17.3657C11.6157 17.2157 11.7 17.0122 11.7 16.8C11.7 16.5878 11.6157 16.3843 11.4657 16.2343C11.3157 16.0843 11.1122 16 10.9 16H8.5V13.6Z" fill="#3343F8"/>
</g>
<defs>
<clipPath id="clip0_9_106">
<rect width="32" height="24" fill="white" transform="translate(0.5)"/>
</clipPath>
</defs>
</svg>
