<svg width="518" height="63" viewBox="0 0 518 63" fill="none" xmlns="http://www.w3.org/2000/svg">
<path d="M151.066 43.6035V49.5449H132.455V43.6035H151.066ZM134.918 12.5762V49.5449H127.301V12.5762H134.918ZM180.24 43.6035V49.5449H160.562V43.6035H180.24ZM163.051 12.5762V49.5449H155.434V12.5762H163.051ZM177.676 27.6328V33.4219H160.562V27.6328H177.676ZM180.215 12.5762V18.543H160.562V12.5762H180.215ZM201.721 12.5762V49.5449H194.129V12.5762H201.721ZM213.096 12.5762V18.543H182.932V12.5762H213.096ZM223.658 10.5449V14.4043C223.658 15.5046 223.447 16.6387 223.023 17.8066C222.617 18.9746 222.067 20.0833 221.373 21.1328C220.679 22.1654 219.917 23.0456 219.088 23.7734L215.66 21.793C216.286 20.7943 216.82 19.7109 217.26 18.543C217.7 17.3581 217.92 15.987 217.92 14.4297V10.5449H223.658ZM248.617 39.8711C248.617 39.2109 248.516 38.6185 248.312 38.0938C248.126 37.5521 247.771 37.0612 247.246 36.6211C246.721 36.1641 245.985 35.7155 245.037 35.2754C244.089 34.8353 242.862 34.3783 241.355 33.9043C239.68 33.3626 238.089 32.7533 236.582 32.0762C235.092 31.3991 233.772 30.612 232.621 29.7148C231.487 28.8008 230.59 27.7428 229.93 26.541C229.286 25.3392 228.965 23.9427 228.965 22.3516C228.965 20.8112 229.303 19.4147 229.98 18.1621C230.658 16.8926 231.605 15.8092 232.824 14.9121C234.043 13.998 235.482 13.2956 237.141 12.8047C238.816 12.3138 240.653 12.0684 242.65 12.0684C245.376 12.0684 247.754 12.5592 249.785 13.541C251.816 14.5228 253.391 15.8685 254.508 17.5781C255.642 19.2878 256.209 21.2428 256.209 23.4434H248.643C248.643 22.36 248.414 21.4121 247.957 20.5996C247.517 19.7702 246.84 19.1185 245.926 18.6445C245.029 18.1706 243.895 17.9336 242.523 17.9336C241.203 17.9336 240.103 18.1367 239.223 18.543C238.342 18.9323 237.682 19.4655 237.242 20.1426C236.802 20.8027 236.582 21.5475 236.582 22.377C236.582 23.0033 236.734 23.5703 237.039 24.0781C237.361 24.5859 237.835 25.0599 238.461 25.5C239.087 25.9401 239.857 26.3548 240.771 26.7441C241.686 27.1335 242.743 27.5143 243.945 27.8867C245.96 28.4961 247.729 29.1816 249.252 29.9434C250.792 30.7051 252.079 31.5599 253.111 32.5078C254.144 33.4557 254.923 34.5306 255.447 35.7324C255.972 36.9342 256.234 38.2969 256.234 39.8203C256.234 41.4284 255.921 42.8672 255.295 44.1367C254.669 45.4062 253.763 46.4811 252.578 47.3613C251.393 48.2415 249.98 48.9102 248.338 49.3672C246.696 49.8242 244.859 50.0527 242.828 50.0527C241 50.0527 239.197 49.8158 237.42 49.3418C235.643 48.8509 234.026 48.1146 232.57 47.1328C231.132 46.151 229.98 44.8984 229.117 43.375C228.254 41.8516 227.822 40.0488 227.822 37.9668H235.465C235.465 39.1178 235.643 40.0911 235.998 40.8867C236.354 41.6823 236.853 42.3255 237.496 42.8164C238.156 43.3073 238.935 43.6628 239.832 43.8828C240.746 44.1029 241.745 44.2129 242.828 44.2129C244.148 44.2129 245.232 44.0267 246.078 43.6543C246.941 43.2819 247.576 42.7656 247.982 42.1055C248.406 41.4453 248.617 40.7005 248.617 39.8711ZM295.793 37.2812H303.385C303.232 39.7695 302.547 41.9785 301.328 43.9082C300.126 45.8379 298.442 47.3444 296.275 48.4277C294.126 49.5111 291.536 50.0527 288.506 50.0527C286.136 50.0527 284.012 49.6465 282.133 48.834C280.254 48.0046 278.646 46.8197 277.309 45.2793C275.988 43.7389 274.981 41.877 274.287 39.6934C273.593 37.5098 273.246 35.0638 273.246 32.3555V29.791C273.246 27.0827 273.602 24.6367 274.312 22.4531C275.04 20.2526 276.073 18.3822 277.41 16.8418C278.764 15.3014 280.381 14.1165 282.26 13.2871C284.139 12.4577 286.238 12.043 288.557 12.043C291.637 12.043 294.236 12.6016 296.352 13.7188C298.484 14.8359 300.135 16.3763 301.303 18.3398C302.488 20.3034 303.199 22.5378 303.436 25.043H295.818C295.734 23.5534 295.438 22.2923 294.93 21.2598C294.422 20.2103 293.652 19.4232 292.619 18.8984C291.604 18.3568 290.249 18.0859 288.557 18.0859C287.287 18.0859 286.178 18.3229 285.23 18.7969C284.283 19.2708 283.487 19.9902 282.844 20.9551C282.201 21.9199 281.718 23.1387 281.396 24.6113C281.092 26.0671 280.939 27.7767 280.939 29.7402V32.3555C280.939 34.2682 281.083 35.9525 281.371 37.4082C281.659 38.847 282.099 40.0658 282.691 41.0645C283.301 42.0462 284.079 42.791 285.027 43.2988C285.992 43.7897 287.152 44.0352 288.506 44.0352C290.097 44.0352 291.409 43.7812 292.441 43.2734C293.474 42.7656 294.261 42.0124 294.803 41.0137C295.361 40.015 295.691 38.7708 295.793 37.2812ZM338.754 30.1973V31.9492C338.754 34.7591 338.373 37.2812 337.611 39.5156C336.85 41.75 335.775 43.6543 334.387 45.2285C332.999 46.7858 331.34 47.9792 329.41 48.8086C327.497 49.638 325.373 50.0527 323.037 50.0527C320.718 50.0527 318.594 49.638 316.664 48.8086C314.751 47.9792 313.092 46.7858 311.688 45.2285C310.283 43.6543 309.191 41.75 308.412 39.5156C307.65 37.2812 307.27 34.7591 307.27 31.9492V30.1973C307.27 27.3704 307.65 24.8483 308.412 22.6309C309.174 20.3965 310.249 18.4922 311.637 16.918C313.042 15.3438 314.701 14.1419 316.613 13.3125C318.543 12.4831 320.667 12.0684 322.986 12.0684C325.322 12.0684 327.447 12.4831 329.359 13.3125C331.289 14.1419 332.948 15.3438 334.336 16.918C335.741 18.4922 336.824 20.3965 337.586 22.6309C338.365 24.8483 338.754 27.3704 338.754 30.1973ZM331.061 31.9492V30.1465C331.061 28.1829 330.883 26.4564 330.527 24.9668C330.172 23.4772 329.647 22.2246 328.953 21.209C328.259 20.1934 327.413 19.4316 326.414 18.9238C325.415 18.3991 324.273 18.1367 322.986 18.1367C321.7 18.1367 320.557 18.3991 319.559 18.9238C318.577 19.4316 317.739 20.1934 317.045 21.209C316.368 22.2246 315.852 23.4772 315.496 24.9668C315.141 26.4564 314.963 28.1829 314.963 30.1465V31.9492C314.963 33.8958 315.141 35.6224 315.496 37.1289C315.852 38.6185 316.376 39.8796 317.07 40.9121C317.764 41.9277 318.611 42.6979 319.609 43.2227C320.608 43.7474 321.751 44.0098 323.037 44.0098C324.324 44.0098 325.466 43.7474 326.465 43.2227C327.464 42.6979 328.301 41.9277 328.979 40.9121C329.656 39.8796 330.172 38.6185 330.527 37.1289C330.883 35.6224 331.061 33.8958 331.061 31.9492ZM374.326 12.5762V49.5449H366.709L351.855 24.7637V49.5449H344.238V12.5762H351.855L366.734 37.3828V12.5762H374.326ZM411.041 12.5762V49.5449H403.424L388.57 24.7637V49.5449H380.953V12.5762H388.57L403.449 37.3828V12.5762H411.041ZM442.475 43.6035V49.5449H422.797V43.6035H442.475ZM425.285 12.5762V49.5449H417.668V12.5762H425.285ZM439.91 27.6328V33.4219H422.797V27.6328H439.91ZM442.449 12.5762V18.543H422.797V12.5762H442.449ZM468.348 37.2812H475.939C475.787 39.7695 475.102 41.9785 473.883 43.9082C472.681 45.8379 470.997 47.3444 468.83 48.4277C466.68 49.5111 464.09 50.0527 461.061 50.0527C458.691 50.0527 456.566 49.6465 454.688 48.834C452.809 48.0046 451.201 46.8197 449.863 45.2793C448.543 43.7389 447.536 41.877 446.842 39.6934C446.148 37.5098 445.801 35.0638 445.801 32.3555V29.791C445.801 27.0827 446.156 24.6367 446.867 22.4531C447.595 20.2526 448.628 18.3822 449.965 16.8418C451.319 15.3014 452.936 14.1165 454.814 13.2871C456.693 12.4577 458.792 12.043 461.111 12.043C464.192 12.043 466.79 12.6016 468.906 13.7188C471.039 14.8359 472.689 16.3763 473.857 18.3398C475.042 20.3034 475.753 22.5378 475.99 25.043H468.373C468.288 23.5534 467.992 22.2923 467.484 21.2598C466.977 20.2103 466.206 19.4232 465.174 18.8984C464.158 18.3568 462.804 18.0859 461.111 18.0859C459.842 18.0859 458.733 18.3229 457.785 18.7969C456.837 19.2708 456.042 19.9902 455.398 20.9551C454.755 21.9199 454.273 23.1387 453.951 24.6113C453.646 26.0671 453.494 27.7767 453.494 29.7402V32.3555C453.494 34.2682 453.638 35.9525 453.926 37.4082C454.214 38.847 454.654 40.0658 455.246 41.0645C455.855 42.0462 456.634 42.791 457.582 43.2988C458.547 43.7897 459.706 44.0352 461.061 44.0352C462.652 44.0352 463.964 43.7812 464.996 43.2734C466.029 42.7656 466.816 42.0124 467.357 41.0137C467.916 40.015 468.246 38.7708 468.348 37.2812ZM496.709 12.5762V49.5449H489.117V12.5762H496.709ZM508.084 12.5762V18.543H477.92V12.5762H508.084ZM506.078 46.0156C506.078 44.9323 506.451 44.0267 507.195 43.2988C507.957 42.571 508.964 42.207 510.217 42.207C511.469 42.207 512.468 42.571 513.213 43.2988C513.975 44.0267 514.355 44.9323 514.355 46.0156C514.355 47.099 513.975 48.0046 513.213 48.7324C512.468 49.4603 511.469 49.8242 510.217 49.8242C508.964 49.8242 507.957 49.4603 507.195 48.7324C506.451 48.0046 506.078 47.099 506.078 46.0156Z" fill="#FCD41B"/>
<path d="M0.00734704 15.4237C1.58692 14.6427 3.71017 13.9492 6.37708 13.3653C9.044 12.774 12.0048 12.4821 15.2668 12.4821C17.3386 12.4821 19.3002 12.701 21.1516 13.1463C23.0031 13.5843 24.6414 14.5186 26.074 15.942C27.9034 14.8617 29.9018 14.0149 32.0691 13.4018C34.2438 12.7886 36.7123 12.4821 39.4747 12.4821C41.451 12.4821 43.3759 12.6937 45.2494 13.1098C47.1228 13.5259 48.7685 14.2777 50.1718 15.3507C51.575 16.4311 52.7138 17.8909 53.5807 19.7304C54.4403 21.5699 54.8738 23.913 54.8738 26.7598V48.8333H48.2836V26.8984C48.2836 24.7889 48.0265 23.1246 47.5049 21.8983C46.9832 20.672 46.2926 19.7377 45.4331 19.1026C44.5661 18.4676 43.5963 18.0515 42.509 17.8544C41.4217 17.6574 40.3123 17.5625 39.1735 17.5625C37.447 17.5625 35.7646 17.7377 34.1409 18.0807C32.5099 18.4238 30.9303 19.2121 29.4022 20.4384C29.7989 21.2706 30.0781 22.2049 30.2544 23.2341C30.4234 24.2633 30.5116 25.4167 30.5116 26.6941V48.8406H24.4357V26.8984C24.4357 24.7889 24.1786 23.1246 23.6569 21.8983C23.1426 20.672 22.4447 19.7377 21.5851 19.1026C20.7182 18.4676 19.7484 18.0515 18.6611 17.8544C17.5737 17.6574 16.4423 17.5625 15.2521 17.5625C13.4742 17.5625 11.8578 17.7012 10.4032 17.9639C8.94849 18.234 7.67748 18.7158 6.59014 19.4019V48.8333H0V15.4237H0.00734704Z" fill="#FCFCFC"/>
<path d="M95.0983 29.6213C95.0983 30.1104 95.0836 30.6651 95.0616 31.2783C95.0396 31.8914 94.9734 32.4681 94.8779 33.0082H67.4006C67.4006 35.0667 67.7312 36.8331 68.3998 38.3076C69.0684 39.7821 70.0014 40.9792 71.2137 41.9136C72.4259 42.8479 73.8438 43.534 75.4748 43.972C77.1058 44.41 78.8838 44.6362 80.8087 44.6362C83.0788 44.6362 85.3123 44.4246 87.509 44.0085C89.7057 43.5924 91.4469 43.0377 92.7326 42.3515L94.2167 47.1327C92.3432 47.9648 90.242 48.5925 87.9204 49.0086C85.5988 49.4247 83.1817 49.6364 80.6617 49.6364C77.745 49.6364 75.0708 49.3079 72.6243 48.6436C70.1777 47.9794 68.0472 46.9064 66.2178 45.41C64.3884 43.9136 62.9705 41.9793 61.9566 39.5996C60.9427 37.22 60.4358 34.3367 60.4358 30.9571C60.4358 27.5702 60.906 24.7015 61.8464 22.3511C62.7868 19.9933 64.0578 18.0955 65.6594 16.6502C67.261 15.2049 69.1418 14.1465 71.2871 13.4896C73.4324 12.8253 75.7173 12.4968 78.1344 12.4968C80.6544 12.4968 82.9466 12.8253 85.0184 13.4896C87.0902 14.1538 88.8682 15.183 90.3522 16.5772C91.8363 17.9787 92.9898 19.7525 93.8347 21.9131C94.6722 24.0591 95.0983 26.6285 95.0983 29.6213ZM69.9206 29.0374H88.1408C88.1408 26.8767 87.891 25.0519 87.3988 23.5555C86.9066 22.0591 86.2233 20.8474 85.3637 19.9131C84.4968 18.9787 83.4609 18.3072 82.256 17.8911C81.0438 17.475 79.7213 17.2634 78.296 17.2634C76.8634 17.2634 75.4895 17.4604 74.1891 17.8546C72.8814 18.2488 71.7353 18.8984 70.7435 19.8036C69.759 20.7087 68.9508 21.8912 68.3337 23.3365C67.7165 24.7818 67.408 26.5628 67.408 28.6724L69.9206 29.0374Z" fill="#FCFCFC"/>
<path d="M122.039 10.7302C122.039 8.95641 121.796 7.48192 121.311 6.30671C120.826 5.1315 120.15 4.19718 119.291 3.49643C118.431 2.79568 117.41 2.30662 116.227 2.01464C115.044 1.72997 113.766 1.58398 112.392 1.58398C110.813 1.58398 109.395 1.75916 108.146 2.11684C106.897 2.47451 105.831 3.05116 104.964 3.8395C104.097 4.63514 103.436 5.65706 102.981 6.90527C102.525 8.15347 102.298 9.67905 102.298 11.4674C102.298 13.4748 102.569 15.1317 103.106 16.4456C103.642 17.7595 104.377 18.8106 105.288 19.5917C106.206 20.38 107.264 20.9275 108.469 21.2487C109.674 21.5698 110.937 21.7304 112.245 21.7304C113.244 21.7304 114.221 21.672 115.169 21.5698C116.117 21.4603 116.962 21.3363 117.719 21.1976C118.468 21.0589 119.092 20.9275 119.599 20.8034C120.099 20.6793 120.4 20.599 120.488 20.5698L120.819 22.1538C120.525 22.2487 120.077 22.3582 119.482 22.4896C118.887 22.621 118.203 22.7523 117.425 22.8764C116.653 23.0005 115.816 23.1027 114.927 23.1903C114.038 23.2779 113.134 23.3217 112.23 23.3217C110.585 23.3217 109.042 23.1173 107.609 22.7158C106.169 22.3144 104.913 21.6428 103.84 20.7231C102.768 19.7961 101.915 18.5844 101.291 17.0734C100.667 15.5624 100.351 13.7083 100.351 11.4966C100.351 9.66445 100.586 8.02938 101.071 6.59869C101.548 5.168 102.275 3.96359 103.253 2.98547C104.23 2.00734 105.471 1.2628 106.985 0.759142C108.498 0.255481 110.284 0 112.348 0C113.994 0 115.522 0.175186 116.94 0.525559C118.358 0.875932 119.585 1.45989 120.628 2.28472C121.671 3.10956 122.494 4.19718 123.096 5.54027C123.699 6.88337 124 8.55494 124 10.5404C124 11.409 123.927 12.2777 123.78 13.139C123.633 14.0003 123.368 14.7741 122.979 15.4456C122.597 16.1245 122.068 16.6719 121.407 17.088C120.738 17.5113 119.893 17.7157 118.857 17.7157C117.858 17.7157 117.079 17.5113 116.536 17.1099C115.985 16.7084 115.603 16.1318 115.382 15.3799C115.147 16.0661 114.706 16.6208 114.052 17.0588C113.406 17.4967 112.532 17.7084 111.437 17.7084C110.372 17.7084 109.534 17.5113 108.917 17.1245C108.3 16.7376 107.83 16.2558 107.521 15.6865C107.205 15.1171 107.007 14.504 106.911 13.847C106.816 13.1828 106.772 12.5769 106.772 12.0149C106.772 11.2192 106.853 10.4382 107.022 9.67175C107.183 8.90531 107.477 8.21187 107.903 7.60601C108.322 7.00016 108.902 6.5111 109.63 6.13883C110.357 5.76655 111.283 5.57677 112.414 5.57677C113.494 5.57677 114.435 5.72276 115.228 6.02203C116.029 6.32131 116.646 6.61329 117.087 6.90527V13.2266C117.087 14.2558 117.241 15.0076 117.542 15.4894C117.851 15.9712 118.35 16.212 119.056 16.212C119.68 16.212 120.187 16.0442 120.584 15.7084C120.973 15.3726 121.282 14.9419 121.502 14.4164C121.723 13.8908 121.87 13.2996 121.95 12.6426C121.994 12.0149 122.039 11.3652 122.039 10.7302ZM115.162 7.86149C114.912 7.7082 114.559 7.54032 114.104 7.35783C113.648 7.18265 113.068 7.08775 112.37 7.08775C111.621 7.08775 111.004 7.22644 110.519 7.49652C110.034 7.7666 109.659 8.13157 109.395 8.59144C109.13 9.0513 108.946 9.58416 108.844 10.19C108.741 10.7959 108.689 11.4236 108.689 12.0806C108.689 12.5185 108.719 12.9711 108.785 13.4529C108.844 13.9346 108.983 14.3799 109.196 14.796C109.409 15.212 109.718 15.5478 110.137 15.8252C110.548 16.0953 111.114 16.2339 111.812 16.2339C112.936 16.2339 113.781 15.8982 114.339 15.2339C114.897 14.5624 115.169 13.6353 115.169 12.4382V7.86149H115.162Z" fill="#FCFCFC"/>
</svg>
