<svg width="240" height="240" viewBox="0 0 240 240" fill="none" xmlns="http://www.w3.org/2000/svg">
<path d="M199.651 120.518C155.376 94.9536 83.8175 94.9536 39.8111 120.518C-4.19525 146.083 -3.93605 187.531 40.3439 213.12C84.6239 238.709 156.182 238.69 200.184 213.12C244.186 187.55 243.936 146.083 199.651 120.518Z" fill="#F5F5F5"/>
<path d="M182.515 53.592L183.95 52.7568L199.104 61.4736V63.1296L182.515 53.592Z" fill="#F5F5F5"/>
<path d="M182.515 53.5919L199.104 63.1295V65.0255L182.515 55.4927V53.5919Z" fill="#E0E0E0"/>
<path d="M200.674 64.0272L202.109 63.192L217.262 71.9088V73.5648L200.674 64.0272Z" fill="#F5F5F5"/>
<path d="M200.674 64.0272L217.262 73.5648V75.4608L200.674 65.928V64.0272Z" fill="#E0E0E0"/>
<path d="M138.235 28.0896L139.67 27.2544L154.824 35.9712V37.6272L138.235 28.0896Z" fill="#F5F5F5"/>
<path d="M138.235 28.0896L154.824 37.6272V39.5232L138.235 29.9904V28.0896Z" fill="#E0E0E0"/>
<path d="M156.394 38.5247L157.829 37.6943L172.982 46.4063V48.0671L156.394 38.5247Z" fill="#F5F5F5"/>
<path d="M156.394 38.5248L172.982 48.0672V49.9584L156.394 40.4256V38.5248Z" fill="#E0E0E0"/>
<path d="M182.597 37.6655L184.032 36.8303L183.946 87.9647L182.515 88.7999L182.597 37.6655Z" fill="#F0F0F0"/>
<path d="M182.515 88.7999L183.946 87.9647L200.453 97.4399L199.018 98.2751L182.515 88.7999Z" fill="#F5F5F5"/>
<path d="M180.96 34.8192L200.76 46.1952L200.669 101.122L180.859 89.76L180.96 34.8192ZM199.022 98.2704L199.109 47.1408L182.597 37.6656L182.515 88.8L199.018 98.2704" fill="#E0E0E0"/>
<path d="M180.955 34.8192L182.386 33.984L202.19 45.3648L200.755 46.1952L180.955 34.8192Z" fill="#F5F5F5"/>
<path d="M200.755 46.1951L202.19 45.3647L202.094 100.286L200.664 101.122L200.755 46.1951Z" fill="#F0F0F0"/>
<path d="M200.755 48.1008L202.19 47.2704L202.109 98.4L200.674 99.2352L200.755 48.1008Z" fill="#F0F0F0"/>
<path d="M200.674 99.2351L202.109 98.3999L218.611 107.875L217.176 108.71L200.674 99.2351Z" fill="#F5F5F5"/>
<path d="M199.114 45.2544L218.918 56.64L218.822 111.562L199.018 100.176L199.114 45.2544ZM217.176 108.71L217.262 57.6L200.755 48.1248L200.674 99.2592L217.176 108.734" fill="#E0E0E0"/>
<path d="M199.114 45.2544L200.549 44.4192L220.349 55.8L218.918 56.6304L199.114 45.2544Z" fill="#F5F5F5"/>
<path d="M218.918 56.6303L220.349 55.7999L220.258 110.722L218.822 111.557L218.918 56.6303Z" fill="#F0F0F0"/>
<path d="M138.317 12.1632L139.752 11.3328L139.666 62.4624L138.235 63.2976L138.317 12.1632Z" fill="#F0F0F0"/>
<path d="M138.235 63.2976L139.666 62.4624L156.173 71.9376L154.738 72.768L138.235 63.2976Z" fill="#F5F5F5"/>
<path d="M136.675 9.31677L156.48 20.6976L156.389 75.6192L136.584 64.2384L136.675 9.31677ZM154.738 72.7728L154.824 21.6384L138.317 12.1632L138.24 63.2976L154.742 72.7728" fill="#E0E0E0"/>
<path d="M136.675 9.31677L138.106 8.48157L157.911 19.8624L156.475 20.6976L136.675 9.31677Z" fill="#F5F5F5"/>
<path d="M156.475 20.6976L157.91 19.8624L157.814 74.784L156.384 75.6192L156.475 20.6976Z" fill="#F0F0F0"/>
<path d="M156.475 22.5983L157.91 21.7679L157.829 72.8975L156.394 73.7327L156.475 22.5983Z" fill="#F0F0F0"/>
<path d="M156.394 73.7328L157.829 72.8976L174.331 82.3728L172.896 83.208L156.394 73.7328Z" fill="#F5F5F5"/>
<path d="M154.834 19.752L174.638 31.1328L174.542 86.0544L154.738 74.6735L154.834 19.752ZM172.896 83.208L172.982 32.0736L156.48 22.5984L156.398 73.7327L172.901 83.208" fill="#E0E0E0"/>
<path d="M154.834 19.7519L156.269 18.9167L176.069 30.2975L174.638 31.1327L154.834 19.7519Z" fill="#F5F5F5"/>
<path d="M174.638 31.1328L176.069 30.2976L175.978 85.2192L174.542 86.0544L174.638 31.1328Z" fill="#F0F0F0"/>
<path d="M161.241 76.2001C161.432 75.8577 161.713 75.5738 162.053 75.3792L179.731 65.352C180.691 64.7952 183.009 65.5489 183.009 67.1185V79.8288C183.01 80.2119 182.909 80.5882 182.717 80.9195C182.524 81.2509 182.248 81.5254 181.915 81.7153L173.683 86.4001L174.821 85.752L174.105 87.7681C174.101 87.7825 174.094 87.7959 174.084 87.8075C174.074 87.819 174.063 87.8285 174.049 87.8352C174.036 87.842 174.021 87.8459 174.006 87.8467C173.991 87.8475 173.976 87.8453 173.961 87.84C173.837 87.7729 173.28 87.4753 172.958 87.2641L172.929 87.2353L172.757 86.952L164.261 91.7041C163.94 91.9035 163.573 92.0149 163.195 92.0269C162.818 92.0389 162.444 91.9511 162.111 91.7724C161.779 91.5937 161.499 91.3304 161.301 91.0091C161.103 90.6878 160.993 90.3199 160.982 89.9425V77.2801C160.974 76.9037 161.063 76.5315 161.241 76.2001Z" fill="#3343F8"/>
<path opacity="0.2" d="M172.906 87.2448L172.934 87.2737C173.256 87.4849 173.813 87.7825 173.938 87.8497C173.923 87.8472 173.909 87.8416 173.896 87.8334C173.884 87.8251 173.873 87.8143 173.866 87.8016L173.179 86.6832L173.314 86.6064L172.709 86.952L172.906 87.2448Z" fill="white"/>
<path opacity="0.4" d="M163.402 77.4241C163.542 77.1429 163.74 76.8943 163.982 76.6945C164.065 76.6282 164.154 76.5688 164.246 76.5169L181.92 66.4897C182.03 66.4266 182.155 66.3936 182.282 66.3939C182.409 66.3943 182.534 66.428 182.643 66.4917C182.753 66.5553 182.844 66.6467 182.908 66.7567C182.971 66.8667 183.005 66.9915 183.005 67.1185C183.005 65.5489 180.701 64.7952 179.726 65.352L162.053 75.3601C161.713 75.5546 161.432 75.8385 161.242 76.1809L163.402 77.4241Z" fill="white"/>
<path opacity="0.2" d="M163.157 91.0849V78.3985C163.152 78.3121 163.152 78.2256 163.157 78.1393C163.193 77.8895 163.27 77.6477 163.387 77.4241L161.227 76.2001C161.044 76.5236 160.946 76.8889 160.944 77.2609V89.9521C160.955 90.3295 161.065 90.6974 161.263 91.0187C161.461 91.34 161.741 91.6033 162.073 91.782C162.406 91.9607 162.78 92.0485 163.157 92.0365C163.534 92.0245 163.902 91.9132 164.222 91.7137C164.113 91.7736 163.99 91.804 163.865 91.8019C163.74 91.7999 163.618 91.7655 163.511 91.7021C163.403 91.6387 163.314 91.5485 163.252 91.4403C163.19 91.3321 163.157 91.2096 163.157 91.0849Z" fill="white"/>
<path d="M173.405 76.3153L173.424 82.1953L171.974 83.0305L171.97 80.7361L169.992 81.8785L170.002 84.1729L168.557 85.0033L168.542 79.1233L169.982 78.2929L169.992 80.4961L171.965 79.3585L171.96 77.1505L173.405 76.3153Z" fill="white"/>
<path d="M175.066 76.1857C174.557 76.4785 174.216 76.3057 174.211 75.8257C174.232 75.5493 174.32 75.2822 174.469 75.0478C174.617 74.8135 174.82 74.6191 175.061 74.4817C175.57 74.1889 175.91 74.3377 175.91 74.8177C175.896 75.0983 175.81 75.3706 175.663 75.6097C175.515 75.8487 175.31 76.0468 175.066 76.1857Z" fill="white"/>
<path d="M174.384 81.6433L174.37 77.0929L175.762 76.2865L175.776 80.8369L174.384 81.6433Z" fill="white"/>
<path d="M177.874 77.4769L176.77 78.1201L176.486 74.5345L178.138 73.5841L177.874 77.4769Z" fill="white"/>
<path d="M177.322 78.2737C177.802 77.9857 178.152 78.1585 178.152 78.6577C178.137 78.9346 178.053 79.2034 177.909 79.4404C177.765 79.6773 177.565 79.8751 177.326 80.0161C176.846 80.2993 176.501 80.0977 176.496 79.6129C176.512 79.3388 176.596 79.073 176.74 78.8393C176.884 78.6056 177.084 78.4113 177.322 78.2737Z" fill="white"/>
<path d="M177.768 129.888L180.96 136.09L178.08 140.971L181.306 146.074L186.178 138.514C186.502 138 186.713 137.423 186.795 136.821C186.878 136.219 186.831 135.606 186.658 135.024C185.827 132.076 184.768 129.197 183.49 126.413L177.768 129.888Z" fill="#FFA8A7"/>
<path opacity="0.2" d="M180.37 128.309L177.768 129.888L180.206 134.597L180.35 129.053C180.36 128.808 180.365 128.558 180.37 128.309Z" fill="black"/>
<path d="M175.2 117.902C178.896 117.216 181.008 118.45 184.133 126.806C182.856 129.686 177.446 130.723 177.446 130.723L175.2 117.902Z" fill="#FCD41B"/>
<path opacity="0.2" d="M179.957 124.574C179.218 122.299 177.346 120.643 175.435 119.155L177.461 130.723C178.445 130.51 179.408 130.213 180.341 129.835C180.341 129.576 180.341 129.312 180.341 129.053C180.394 127.55 180.427 126.01 179.957 124.574Z" fill="black"/>
<path d="M169.522 205.488C169.219 206.122 168.259 206.707 167.213 206.88C166.153 206.971 165.085 206.903 164.045 206.678C162.479 206.459 160.892 206.418 159.317 206.558C158.341 206.687 157.358 206.756 156.374 206.765C155.383 206.776 154.414 206.47 153.61 205.891C153.054 205.454 152.684 204.823 152.573 204.125C152.525 204.58 152.595 205.04 152.777 205.461C152.958 205.881 153.245 206.248 153.61 206.525C154.415 207.103 155.383 207.411 156.374 207.403C157.358 207.39 158.341 207.32 159.317 207.192C160.892 207.054 162.478 207.095 164.045 207.312C165.096 207.461 166.238 207.758 167.285 207.586C168.331 207.413 169.291 206.827 169.594 206.194L169.522 205.488Z" fill="#263238"/>
<path d="M158.045 203.616C158.928 203.616 158.602 202.31 159.442 201.437C159.101 201.437 158.755 201.437 158.414 201.437C157.661 202.56 157.44 203.616 158.045 203.616Z" fill="white"/>
<path d="M159.878 203.549C160.766 203.549 160.531 201.994 161.405 201.086C161.203 201.154 161.002 201.211 160.8 201.259C160.627 201.298 160.45 201.326 160.277 201.35C159.499 202.454 159.274 203.549 159.878 203.549Z" fill="white"/>
<path d="M168.61 200.563C168.544 200.274 168.373 200.019 168.13 199.848L163.363 199.728C162.852 200.366 162.164 200.838 161.386 201.086C160.512 201.994 160.747 203.549 159.859 203.549C159.254 203.549 159.48 202.454 160.258 201.35C159.979 201.394 159.701 201.418 159.422 201.437C158.582 202.31 158.909 203.616 158.026 203.616C157.43 203.616 157.642 202.546 158.395 201.461H157.728C157.526 201.461 157.32 201.461 157.118 201.427C155.366 202.81 155.198 204.307 155.443 206.678C155.745 206.73 156.049 206.761 156.355 206.77C157.339 206.761 158.322 206.692 159.298 206.563C160.873 206.423 162.459 206.463 164.026 206.683C165.066 206.908 166.133 206.976 167.194 206.885C168.24 206.712 169.2 206.126 169.502 205.493L168.61 200.563Z" fill="#3343F8"/>
<path d="M157.138 201.422C156.343 201.291 155.532 201.291 154.738 201.422C154.248 201.518 153.792 201.74 153.416 202.067C153.039 202.394 152.755 202.814 152.592 203.285C152.524 203.56 152.512 203.846 152.558 204.125C152.669 204.823 153.04 205.454 153.595 205.891C154.138 206.302 154.775 206.571 155.448 206.674C155.232 204.312 155.386 202.805 157.138 201.422Z" fill="white"/>
<path d="M163.248 198.37V200.664C163.248 200.919 163.349 201.163 163.529 201.343C163.709 201.523 163.953 201.624 164.208 201.624H166.608C167.01 201.624 167.396 201.468 167.684 201.188C167.973 200.909 168.141 200.528 168.154 200.126L168.211 198.384L163.248 198.37Z" fill="#FFA8A7"/>
<path d="M179.131 197.347C179.001 197.628 178.8 197.869 178.547 198.046C178.294 198.224 177.999 198.332 177.691 198.36C177.049 198.405 176.41 198.248 175.863 197.909C175.032 197.386 174.711 196.56 174.149 195.816C173.559 195.093 172.889 194.439 172.152 193.867C171.355 193.284 170.699 192.53 170.232 191.659C170.116 191.402 170.04 191.128 170.007 190.848C169.934 191.377 170.012 191.916 170.232 192.403C170.699 193.274 171.355 194.028 172.152 194.611C172.888 195.185 173.558 195.838 174.149 196.56C174.711 197.304 175.032 198.13 175.863 198.653C176.409 198.994 177.049 199.152 177.691 199.104C177.999 199.076 178.294 198.968 178.547 198.79C178.8 198.613 179.001 198.372 179.131 198.091C179.232 197.672 179.262 197.239 179.223 196.81C179.224 196.993 179.193 197.175 179.131 197.347Z" fill="#263238"/>
<path d="M173.717 192.307C173.633 192.421 173.592 192.56 173.602 192.701C173.616 192.768 173.647 192.83 173.693 192.881C173.738 192.933 173.796 192.971 173.861 192.994C173.955 193.018 174.054 193.017 174.148 192.993C174.242 192.969 174.328 192.921 174.398 192.854C174.536 192.719 174.659 192.572 174.768 192.413C175.088 192.008 175.513 191.699 175.997 191.52C176.233 191.432 176.48 191.377 176.731 191.357L176.131 190.814C175.756 190.834 175.389 190.924 175.046 191.078C174.487 191.341 174.023 191.77 173.717 192.307Z" fill="white"/>
<path d="M173.842 190.411C173.285 190.674 172.822 191.101 172.517 191.635C172.43 191.747 172.388 191.887 172.397 192.029C172.413 192.096 172.446 192.159 172.492 192.211C172.538 192.263 172.596 192.302 172.661 192.326C172.754 192.351 172.852 192.35 172.945 192.326C173.039 192.302 173.124 192.254 173.194 192.187C173.333 192.053 173.458 191.905 173.568 191.746C173.886 191.34 174.309 191.029 174.792 190.848C175.178 190.71 175.589 190.656 175.997 190.69L175.406 190.152C174.871 190.098 174.331 190.187 173.842 190.411Z" fill="white"/>
<path d="M175.032 189.816C174.49 189.287 173.856 188.862 173.16 188.563C172.74 188.379 172.278 188.315 171.823 188.377C171.369 188.44 170.941 188.627 170.587 188.918C170.35 189.173 170.176 189.478 170.077 189.812C169.979 190.145 169.96 190.496 170.021 190.838C170.055 191.119 170.131 191.392 170.246 191.65C170.399 191.987 170.598 192.302 170.837 192.586C171.062 190.56 172.848 189.6 175.032 189.816Z" fill="white"/>
<path d="M179.179 195.331C179.185 194.633 179.02 193.945 178.699 193.325L177.542 192.11L176.717 191.357C176.466 191.377 176.219 191.432 175.982 191.52C175.499 191.699 175.074 192.008 174.754 192.413C174.645 192.572 174.521 192.719 174.384 192.854C174.313 192.921 174.227 192.969 174.133 192.993C174.039 193.017 173.941 193.018 173.846 192.994C173.782 192.971 173.724 192.933 173.678 192.881C173.633 192.83 173.602 192.768 173.587 192.701C173.578 192.56 173.619 192.421 173.702 192.307C174.008 191.77 174.473 191.341 175.032 191.078C175.374 190.924 175.742 190.834 176.117 190.814L175.982 190.69C175.574 190.656 175.163 190.71 174.778 190.848C174.295 191.029 173.872 191.34 173.554 191.746C173.443 191.905 173.318 192.053 173.179 192.187C173.11 192.254 173.024 192.302 172.931 192.326C172.838 192.35 172.74 192.35 172.646 192.326C172.581 192.302 172.523 192.263 172.477 192.211C172.431 192.159 172.399 192.096 172.382 192.029C172.373 191.887 172.416 191.747 172.502 191.635C172.808 191.101 173.271 190.674 173.827 190.411C174.317 190.187 174.857 190.098 175.392 190.152L175.037 189.835C172.853 189.6 171.067 190.56 170.842 192.614C171.239 193.078 171.677 193.503 172.152 193.886C172.888 194.46 173.556 195.116 174.144 195.84C174.706 196.584 175.027 197.41 175.858 197.933C176.405 198.272 177.045 198.429 177.686 198.384C177.994 198.356 178.289 198.248 178.542 198.07C178.795 197.893 178.996 197.652 179.126 197.371C179.188 197.199 179.219 197.017 179.218 196.834C179.233 196.333 179.22 195.831 179.179 195.331Z" fill="#3343F8"/>
<path d="M174.998 191.702L175.133 194.17C176.688 195.062 178.325 194.578 178.872 194.006L178.973 191.702H174.998Z" fill="#FFA8A7"/>
<path d="M178.08 138.422C177.947 138.157 177.867 137.869 177.845 137.573L177.715 135.456L162.638 136.416C162.442 137.472 162.24 138.768 162.038 140.256C167.428 141.658 173.146 141.005 178.08 138.422Z" fill="#FFA8A7"/>
<path d="M168.298 118.886L164.261 119.678C163.373 121.31 162.461 122.842 161.568 124.478C160.901 125.707 160.21 127.013 160.258 128.414C160.289 129 160.447 129.572 160.721 130.09C160.996 130.608 161.38 131.06 161.846 131.414C162.092 131.59 162.288 131.826 162.416 132.099C162.545 132.372 162.601 132.673 162.581 132.974L162.211 137.4C168.542 139.32 176.285 137.635 177.989 136.166C178.469 133.858 178.949 131.405 179.429 129.096C179.962 126.634 180.499 124.147 179.731 121.574C179.593 121.111 179.389 120.67 179.126 120.264C178.601 119.429 177.842 118.766 176.943 118.359C176.045 117.952 175.046 117.818 174.072 117.974L168.298 118.886Z" fill="#FCD41B"/>
<path opacity="0.2" d="M161.674 124.286L161.573 124.474C160.901 125.703 160.21 127.008 160.258 128.41C160.289 128.995 160.447 129.567 160.721 130.085C160.996 130.603 161.38 131.055 161.846 131.41C162.092 131.586 162.288 131.821 162.416 132.094C162.545 132.367 162.601 132.669 162.581 132.97L162.456 134.448C163.723 131.962 165.427 128.347 166.147 125.683L161.674 124.286Z" fill="black"/>
<path d="M178.296 138.806C178.206 138.686 178.127 138.558 178.061 138.422C173.126 141.001 167.407 141.652 162.019 140.246C160.886 148.704 159.907 163.022 160.507 172.469C160.987 183.47 163.032 199.042 163.032 199.042C165.672 199.834 167.65 199.349 168.398 198.778C169.277 187.867 171.211 180.389 169.718 173.174C170.712 168.13 171.36 161.794 171.36 161.794L172.123 172.939L174.72 192.533C175.446 192.904 176.256 193.078 177.07 193.037C177.884 192.995 178.673 192.741 179.357 192.298C181.234 181.094 181.939 173.501 180.293 167.942C182.779 149.558 182.909 144.854 178.296 138.806Z" fill="#455A64"/>
<path opacity="0.3" d="M172.469 159.59L173.851 153.787C175.464 153.523 177.989 152.467 179.314 150.254C177.404 151.76 175.054 152.598 172.623 152.64L171.36 161.794L171.629 165.72L171.735 164.28C171.857 162.7 172.103 161.132 172.469 159.59Z" fill="black"/>
<path d="M163.382 108.043C162.782 106.901 162.508 105.616 162.59 104.328C162.641 103.687 162.844 103.068 163.183 102.521C163.522 101.975 163.987 101.518 164.539 101.189C165.104 100.88 165.757 100.773 166.391 100.883C167.025 100.994 167.602 101.317 168.029 101.798C169.054 101.235 170.212 100.96 171.381 101.003C172.55 101.045 173.686 101.404 174.667 102.04C175.649 102.676 176.44 103.566 176.956 104.615C177.473 105.665 177.695 106.834 177.6 108C177.514 109.334 177.024 110.65 177.178 111.979C177.264 112.762 177.571 113.554 177.37 114.312C177.268 114.627 177.103 114.917 176.884 115.165C176.665 115.413 176.397 115.613 176.098 115.752C175.517 116.059 174.154 115.978 173.51 116.112C171.542 117.898 169.075 117.23 167.501 115.632C165.926 114.034 163.382 108.043 163.382 108.043Z" fill="#37474F"/>
<path d="M162.974 109.819L161.746 111.955L163.09 112.45L162.974 109.819Z" fill="#FF9192"/>
<path d="M162.835 108.869C163.032 106.992 163.579 105.23 164.798 104.333C164.469 106.668 164.966 109.046 166.205 111.053C166.327 110.435 166.645 109.873 167.112 109.45C167.338 109.231 167.622 109.079 167.93 109.013C168.238 108.947 168.558 108.969 168.854 109.075C169.263 109.266 169.579 109.612 169.733 110.035C169.896 110.439 169.939 110.881 169.858 111.309C169.777 111.737 169.575 112.133 169.276 112.449C168.976 112.765 168.593 112.989 168.17 113.094C167.747 113.199 167.304 113.18 166.891 113.04C167.061 113.872 167.469 114.637 168.065 115.241C168.662 115.845 169.422 116.263 170.251 116.443C171.343 116.664 172.476 116.556 173.506 116.131L174.014 118.656C171.96 120.845 168.446 119.376 168.446 119.376L167.966 116.89C163.925 117.13 163.546 117.062 163.104 114.835C162.741 112.868 162.65 110.861 162.835 108.869Z" fill="#FFA8A7"/>
<path opacity="0.3" d="M171.782 106.147C172.354 104.52 173.497 103.155 174.998 102.307C175.858 102.977 176.543 103.844 176.996 104.835C177.449 105.826 177.656 106.912 177.6 108C177.514 109.334 177.024 110.65 177.178 111.979C177.264 112.762 177.571 113.554 177.37 114.312C177.268 114.627 177.103 114.917 176.884 115.165C176.665 115.413 176.397 115.613 176.098 115.752C175.517 116.059 174.154 115.978 173.51 116.112C173.424 116.189 173.338 116.256 173.251 116.323C172.565 115.02 172.029 113.643 171.653 112.219C171.099 110.226 171.144 108.115 171.782 106.147Z" fill="black"/>
<path d="M172.906 104.746C173.221 103.697 173.863 102.777 174.738 102.119C175.613 101.46 176.675 101.098 177.77 101.085C178.864 101.071 179.935 101.408 180.825 102.044C181.716 102.681 182.38 103.585 182.722 104.626C183.941 108.312 180.802 112.238 181.502 116.064C181.747 117.442 182.462 118.694 182.726 120.072C182.872 120.869 182.853 121.686 182.67 122.475C182.488 123.264 182.146 124.007 181.666 124.659C181.186 125.311 180.577 125.858 179.878 126.266C179.179 126.674 178.404 126.935 177.6 127.032C178.478 126.072 178.493 124.57 177.994 123.365C177.494 122.16 176.602 121.166 175.834 120.11C172.733 115.853 171.36 109.786 172.906 104.746Z" fill="#37474F"/>
<path d="M164.261 119.678C159.941 120.552 155.587 131.578 155.587 131.578L151.474 120.058L152.357 115.738C152.405 115.489 152.385 115.232 152.299 114.994L151.339 112.31C151.292 112.181 151.2 112.072 151.079 112.006C150.957 111.94 150.816 111.92 150.682 111.95C150.606 111.968 150.534 112 150.471 112.046C150.409 112.092 150.356 112.15 150.316 112.217C150.277 112.284 150.251 112.358 150.241 112.435C150.232 112.513 150.238 112.591 150.259 112.666L150.994 115.128L149.827 112.915C149.78 112.825 149.715 112.746 149.637 112.681C149.558 112.616 149.467 112.568 149.37 112.539C149.272 112.51 149.17 112.501 149.069 112.512C148.968 112.523 148.87 112.554 148.781 112.603L147.84 113.112C147.665 113.208 147.536 113.37 147.479 113.561C147.422 113.753 147.443 113.959 147.538 114.134L148.555 116.054C147.403 119.357 148.435 120.322 148.435 120.322L150.384 132.566C150.569 133.727 151.114 134.801 151.941 135.635C152.769 136.47 153.838 137.023 154.997 137.218C156.079 137.398 157.191 137.258 158.194 136.813C159.197 136.369 160.048 135.64 160.642 134.717C167.002 124.872 170.53 118.56 164.261 119.678Z" fill="#FFA8A7"/>
<path opacity="0.2" d="M154.934 133.92C155.074 133.127 155.293 132.351 155.587 131.602L155.107 130.2C154.782 130.761 154.596 131.391 154.566 132.039C154.536 132.686 154.662 133.332 154.934 133.92Z" fill="black"/>
<path d="M164.261 119.678C162.341 120.206 160.258 121.21 157.291 127.032C157.622 131.232 163.819 130.176 163.819 130.176C165.456 127.056 167.218 123.802 167.563 122.275C168.144 119.726 166.982 119.136 164.261 119.678Z" fill="#FCD41B"/>
<path d="M107.915 141.478L95.4065 148.635C93.6095 149.668 91.5729 150.212 89.5001 150.212C87.4273 150.212 85.3907 149.668 83.5937 148.635L74.3153 143.269C73.7747 142.957 73.3255 142.509 73.0129 141.969C72.7004 141.428 72.5354 140.816 72.5345 140.192V133.856L70.6145 134.979V140.48C70.6144 141.209 70.8064 141.925 71.1713 142.556C71.5362 143.187 72.061 143.711 72.6929 144.075L83.7329 150.43C85.5027 151.446 87.5076 151.98 89.5481 151.98C91.5886 151.98 93.5935 151.446 95.3633 150.43L107.963 143.23C108.821 142.741 109.504 141.995 109.916 141.098C110.328 140.201 110.449 139.198 110.263 138.229C110.136 138.91 109.86 139.555 109.454 140.117C109.048 140.679 108.523 141.144 107.915 141.478Z" fill="#FCD41B"/>
<path opacity="0.1" d="M107.915 141.478L95.4065 148.635C93.6095 149.668 91.5729 150.212 89.5001 150.212C87.4273 150.212 85.3907 149.668 83.5937 148.635L74.3153 143.269C73.7747 142.957 73.3255 142.509 73.0129 141.969C72.7004 141.428 72.5354 140.816 72.5345 140.192V133.856L70.6145 134.979V140.48C70.6144 141.209 70.8064 141.925 71.1713 142.556C71.5362 143.187 72.061 143.711 72.6929 144.075L83.7329 150.43C85.5027 151.446 87.5076 151.98 89.5481 151.98C91.5886 151.98 93.5935 151.446 95.3633 150.43L107.963 143.23C108.821 142.741 109.504 141.995 109.916 141.098C110.328 140.201 110.449 139.198 110.263 138.229C110.136 138.91 109.86 139.555 109.454 140.117C109.048 140.679 108.523 141.144 107.915 141.478Z" fill="black"/>
<path d="M74.3155 143.269L83.5987 148.616C85.3957 149.649 87.4323 150.192 89.5051 150.192C91.5779 150.192 93.6144 149.649 95.4115 148.616L107.915 141.478C108.513 141.14 109.028 140.674 109.426 140.114C109.823 139.554 110.092 138.914 110.215 138.238C110.095 137.579 109.835 136.953 109.453 136.403C109.07 135.853 108.574 135.392 107.997 135.051L97.7347 128.897C97.1203 128.528 96.6118 128.005 96.2586 127.381C95.9054 126.757 95.7194 126.053 95.7187 125.336V120.454L72.5203 133.865V140.201C72.5243 140.825 72.6922 141.437 73.0073 141.975C73.3224 142.514 73.7736 142.96 74.3155 143.269Z" fill="#FCD41B"/>
<path opacity="0.4" d="M74.3153 143.269C73.7747 142.957 73.3255 142.509 73.0129 141.969C72.7004 141.428 72.5354 140.816 72.5345 140.192V133.856L70.6145 134.979V140.48C70.6144 141.209 70.8064 141.925 71.1713 142.556C71.5362 143.187 72.061 143.711 72.6929 144.075L76.6001 146.331V144.569L74.3153 143.269Z" fill="black"/>
<path opacity="0.3" d="M74.3153 143.269L76.5761 144.569L100.797 130.731L97.7393 128.897C97.1249 128.528 96.6164 128.005 96.2632 127.381C95.91 126.757 95.724 126.053 95.7233 125.336V120.454L72.5249 133.865V140.201C72.5284 140.825 72.6956 141.436 73.0099 141.974C73.3241 142.513 73.7743 142.959 74.3153 143.269Z" fill="black"/>
<path d="M32.1954 156.718L32.0178 77.3789C32.0835 76.1502 32.4382 74.9544 33.0528 73.8885C33.6675 72.8227 34.5249 71.9168 35.5554 71.2445L134.181 14.4509C135.141 13.8893 136.039 13.8317 136.682 14.1917L132.967 12.0413C132.319 11.6285 131.402 11.6621 130.389 12.2477L31.7682 69.0461C30.7381 69.7173 29.8813 70.6224 29.2673 71.6876C28.6534 72.7528 28.2998 73.9479 28.2354 75.1757L28.4034 154.534C28.4034 155.595 28.7682 156.353 29.3634 156.747L29.5602 156.857L33.2226 158.993C32.589 158.609 32.2002 157.827 32.1954 156.718Z" fill="#FCD41B"/>
<path opacity="0.3" d="M132.967 12.0413C132.319 11.6285 131.402 11.6621 130.389 12.2477L31.7682 69.0461C30.6003 69.782 29.6611 70.8293 29.0562 72.0701L32.8482 74.2637C33.4544 73.0266 34.3915 71.9816 35.5554 71.2445L134.181 14.4509C135.141 13.8893 136.039 13.8317 136.682 14.1917L132.967 12.0413Z" fill="white"/>
<path opacity="0.2" d="M28.2354 75.1757L28.4034 154.534C28.4034 155.595 28.7682 156.353 29.3634 156.747L29.5602 156.857L33.2226 158.993C32.5986 158.619 32.2097 157.837 32.2049 156.728L32.0274 77.3885C32.0571 76.2995 32.3415 75.2326 32.8577 74.2733L29.0658 72.0797C28.5536 73.0338 28.2694 74.0934 28.2354 75.1757Z" fill="black"/>
<path d="M137.743 16.4813C137.743 15.3725 137.349 14.5949 136.725 14.2205H136.701C136.058 13.8605 135.175 13.9181 134.2 14.4797L35.5554 71.2445C34.5249 71.9168 33.6676 72.8227 33.0529 73.8886C32.4382 74.9545 32.0836 76.1503 32.0178 77.3789L32.1954 156.718C32.1954 157.827 32.589 158.609 33.213 158.984L33.2706 159.013H33.2946C33.9378 159.349 34.8018 159.286 35.757 158.734L134.383 101.955C135.413 101.284 136.27 100.379 136.885 99.3136C137.5 98.2485 137.854 97.0533 137.92 95.8253L137.743 16.4813ZM132.631 98.9213L35.6946 154.741L35.5218 77.3693C35.5877 76.7588 35.7806 76.1688 36.0881 75.6372C36.3956 75.1057 36.811 74.6444 37.3074 74.2829L134.267 18.4637L134.44 95.8349C134.37 96.4471 134.173 97.0379 133.862 97.5694C133.55 98.1009 133.131 98.5614 132.631 98.9213Z" fill="#FCD41B"/>
<path d="M134.243 18.4636L131.733 19.9036L131.915 94.6108C131.848 95.2211 131.655 95.8106 131.347 96.342C131.04 96.8734 130.625 97.3349 130.13 97.6972L35.6897 152.067V154.74L132.65 98.9212C133.145 98.5589 133.56 98.0974 133.867 97.566C134.175 97.0346 134.368 96.4451 134.435 95.8348L134.243 18.4636Z" fill="#FCD41B"/>
<path opacity="0.3" d="M134.243 18.4636L131.733 19.9036L131.915 94.6108C131.848 95.2211 131.655 95.8106 131.347 96.342C131.04 96.8734 130.625 97.3349 130.13 97.6972L35.6897 152.067V154.74L132.65 98.9212C133.145 98.5589 133.56 98.0974 133.867 97.566C134.175 97.0346 134.368 96.4451 134.435 95.8348L134.243 18.4636Z" fill="black"/>
<path d="M131.915 94.6109L131.747 19.9084L37.3073 74.2828C36.8109 74.6443 36.3955 75.1056 36.088 75.6371C35.7805 76.1687 35.5876 76.7587 35.5217 77.3693L35.6897 152.067L130.115 97.6973C130.614 97.3364 131.031 96.8755 131.341 96.344C131.651 95.8125 131.847 95.2222 131.915 94.6109Z" fill="#263238"/>
<path d="M47.1377 160.726L46.9553 85.7357C47.019 84.5735 47.3566 83.4428 47.9405 82.4359C48.5244 81.429 49.3382 80.5745 50.3153 79.9421L143.531 26.2637C144.453 25.7309 145.288 25.6781 145.898 26.0189L142.389 23.9741C141.775 23.5853 140.911 23.6189 139.951 24.1709L46.7345 77.8637C45.7566 78.4953 44.9422 79.3496 44.3582 80.3566C43.7741 81.3637 43.437 82.4948 43.3745 83.6573L43.5425 158.648C43.5425 159.656 43.8833 160.371 44.4353 160.74C44.4944 160.781 44.557 160.817 44.6225 160.846L48.0833 162.862C47.5121 162.512 47.1425 161.777 47.1377 160.726Z" fill="#455A64"/>
<path opacity="0.2" d="M142.389 23.9741C141.775 23.5853 140.911 23.6189 139.951 24.1709L46.7346 77.8637C45.6318 78.5594 44.7443 79.5483 44.1714 80.7197L47.757 82.7933C48.331 81.6254 49.2163 80.6387 50.3154 79.9421L143.531 26.2637C144.453 25.7309 145.288 25.6781 145.898 26.0189L142.389 23.9741Z" fill="white"/>
<path opacity="0.1" d="M43.3889 83.6573L43.5569 158.648C43.5569 159.656 43.8977 160.371 44.4497 160.741C44.5088 160.781 44.5714 160.817 44.6369 160.846L48.0977 162.862C47.5073 162.507 47.1377 161.773 47.1377 160.721L46.9553 85.7357C46.9844 84.7069 47.254 83.6992 47.7425 82.7933L44.1569 80.7197C43.6748 81.6254 43.4117 82.6315 43.3889 83.6573Z" fill="white"/>
<path d="M46.9792 90.0845L47.1376 160.726C47.1376 161.777 47.512 162.512 48.0976 162.867L48.1504 162.9C48.7552 163.217 49.5904 163.16 50.4784 162.636L143.723 108.968C144.7 108.335 145.514 107.481 146.098 106.474C146.682 105.467 147.02 104.336 147.083 103.174L146.925 32.4125L46.9792 90.0845Z" fill="#455A64"/>
<path d="M51.7891 92.8541L142.13 40.7117L142.269 103.174C142.141 103.809 141.803 104.382 141.309 104.801L51.9283 156.291L51.7891 92.8541Z" fill="#455A64"/>
<path opacity="0.2" d="M46.9792 90.0845L47.1376 160.726C47.1376 161.777 47.512 162.512 48.0976 162.867L48.1504 162.9C48.7552 163.217 49.5904 163.16 50.4784 162.636L143.723 108.968C144.7 108.335 145.514 107.481 146.098 106.474C146.682 105.467 147.02 104.336 147.083 103.174L146.925 32.4125L46.9792 90.0845Z" fill="white"/>
<path d="M143.042 37.1117C143.906 36.6317 144.611 37.0109 144.611 38.0093C144.583 38.551 144.427 39.0783 144.156 39.548C143.885 40.0178 143.506 40.4166 143.051 40.7117L63.1458 86.9021C62.2866 87.3821 61.581 87.0029 61.5762 86.0093C61.6038 85.4669 61.7596 84.9388 62.0307 84.4682C62.3019 83.9976 62.6807 83.598 63.1362 83.3021L143.042 37.1117Z" fill="#455A64"/>
<g opacity="0.8">
<path d="M143.042 37.1117C143.906 36.6317 144.611 37.0109 144.611 38.0093C144.583 38.551 144.427 39.0783 144.156 39.548C143.885 40.0178 143.506 40.4166 143.051 40.7117L63.1458 86.9021C62.2866 87.3821 61.581 87.0029 61.5762 86.0093C61.6038 85.4669 61.7596 84.9388 62.0307 84.4682C62.3019 83.9976 62.6807 83.598 63.1362 83.3021L143.042 37.1117Z" fill="white"/>
</g>
<path d="M51.4002 90.8909C51.4167 90.8832 51.4347 90.8792 51.453 90.8792C51.4712 90.8792 51.4892 90.8832 51.5058 90.8909C51.573 90.9245 51.5778 91.0349 51.5058 91.1405L51.0258 92.0717L52.7298 91.0877C52.8162 91.0349 52.8882 91.0877 52.8882 91.1789C52.8847 91.233 52.8685 91.2855 52.841 91.3322C52.8135 91.3789 52.7754 91.4184 52.7298 91.4477L51.0258 92.4317L51.5346 92.7773C51.597 92.8157 51.5922 92.9309 51.5346 93.0365C51.5083 93.0809 51.4722 93.1187 51.429 93.1469C51.4121 93.1586 51.392 93.1649 51.3714 93.1649C51.3508 93.1649 51.3307 93.1586 51.3138 93.1469L50.541 92.6141C50.5273 92.6036 50.5159 92.5906 50.5074 92.5757C50.5047 92.555 50.5047 92.534 50.5074 92.5133C50.5051 92.4925 50.5051 92.4716 50.5074 92.4509C50.5132 92.424 50.5229 92.3981 50.5362 92.3741L51.285 90.9965C51.3131 90.9515 51.3529 90.915 51.4002 90.8909Z" fill="#455A64"/>
<path d="M55.701 88.4093C55.7183 88.3965 55.7394 88.3895 55.761 88.3895C55.7826 88.3895 55.8036 88.3965 55.821 88.4093L56.5698 88.9133L56.6034 88.9517C56.6057 88.9725 56.6057 88.9934 56.6034 89.0141C56.6054 89.0365 56.6054 89.059 56.6034 89.0813L56.5746 89.1533L55.8258 90.5309C55.7991 90.582 55.7593 90.625 55.7106 90.6557C55.6936 90.665 55.6747 90.6698 55.6554 90.6698C55.6361 90.6698 55.6171 90.665 55.6002 90.6557C55.5378 90.6269 55.533 90.5117 55.6002 90.4061L56.109 89.4749L54.405 90.4589C54.3186 90.5117 54.2466 90.4589 54.2466 90.3725C54.2485 90.3174 54.264 90.2637 54.2916 90.2159C54.3192 90.1682 54.3582 90.128 54.405 90.0989L56.109 89.1149L55.5954 88.7741C55.5378 88.7309 55.5426 88.6157 55.5954 88.5101C55.621 88.4677 55.6574 88.4329 55.701 88.4093Z" fill="#455A64"/>
<path d="M58.8497 86.59C59.0045 86.4894 59.1893 86.4453 59.3729 86.4652C59.3798 86.4153 59.397 86.3673 59.4235 86.3243C59.4499 86.2814 59.485 86.2444 59.5265 86.2156C59.6129 86.1676 59.6801 86.2156 59.6753 86.3164V86.7196C59.6699 86.7714 59.6534 86.8213 59.6269 86.8661C59.6004 86.9108 59.5645 86.9493 59.5217 86.9788L59.1809 87.1948C59.0993 87.2428 59.0273 87.1948 59.0273 87.1132C59.0268 87.0657 59.0369 87.0187 59.0568 86.9755C59.0768 86.9324 59.106 86.8941 59.1425 86.8636C59.0422 86.8675 58.9446 86.8973 58.8593 86.95C58.6666 87.0744 58.5064 87.2429 58.3921 87.4416C58.2777 87.6403 58.2124 87.8634 58.2017 88.0924C58.2017 88.51 58.4993 88.678 58.8641 88.4668C59.1332 88.2948 59.3375 88.0381 59.4449 87.7372C59.4693 87.6649 59.5186 87.6037 59.5841 87.5644C59.6074 87.5564 59.6327 87.5564 59.6561 87.5644C59.7329 87.5644 59.7617 87.6604 59.7233 87.7756C59.563 88.2201 59.2611 88.5995 58.8641 88.8556C58.3265 89.1628 57.9041 88.9132 57.9041 88.294C57.9152 87.9554 58.0068 87.6242 58.1712 87.3279C58.3356 87.0316 58.5682 86.7787 58.8497 86.59Z" fill="#455A64"/>
<g opacity="0.7">
<path d="M51.4002 90.8909C51.4167 90.8832 51.4347 90.8792 51.453 90.8792C51.4712 90.8792 51.4892 90.8832 51.5058 90.8909C51.573 90.9245 51.5778 91.0349 51.5058 91.1405L51.0258 92.0717L52.7298 91.0877C52.8162 91.0349 52.8882 91.0877 52.8882 91.1789C52.8847 91.233 52.8685 91.2855 52.841 91.3322C52.8135 91.3789 52.7754 91.4184 52.7298 91.4477L51.0258 92.4317L51.5346 92.7773C51.597 92.8157 51.5922 92.9309 51.5346 93.0365C51.5083 93.0809 51.4722 93.1187 51.429 93.1469C51.4121 93.1586 51.392 93.1649 51.3714 93.1649C51.3508 93.1649 51.3307 93.1586 51.3138 93.1469L50.541 92.6141C50.5273 92.6036 50.5159 92.5906 50.5074 92.5757C50.5047 92.555 50.5047 92.534 50.5074 92.5133C50.5051 92.4925 50.5051 92.4716 50.5074 92.4509C50.5132 92.424 50.5229 92.3981 50.5362 92.3741L51.285 90.9965C51.3131 90.9515 51.3529 90.915 51.4002 90.8909Z" fill="white"/>
<path d="M55.701 88.4092C55.7183 88.3963 55.7394 88.3894 55.761 88.3894C55.7826 88.3894 55.8036 88.3963 55.821 88.4092L56.5698 88.9132L56.6034 88.9516C56.6057 88.9723 56.6057 88.9933 56.6034 89.014C56.6054 89.0364 56.6054 89.0589 56.6034 89.0812L56.5746 89.1532L55.8258 90.5308C55.7991 90.5818 55.7593 90.6249 55.7106 90.6556C55.6936 90.6648 55.6747 90.6697 55.6554 90.6697C55.6361 90.6697 55.6171 90.6648 55.6002 90.6556C55.5378 90.6268 55.533 90.5116 55.6002 90.406L56.109 89.4748L54.405 90.4588C54.3186 90.5116 54.2466 90.4588 54.2466 90.3724C54.2485 90.3173 54.264 90.2635 54.2916 90.2158C54.3192 90.1681 54.3582 90.1279 54.405 90.0988L56.109 89.1148L55.5954 88.774C55.5378 88.7308 55.5426 88.6156 55.5954 88.51C55.621 88.4676 55.6574 88.4328 55.701 88.4092Z" fill="white"/>
<path d="M58.8497 86.59C59.0045 86.4894 59.1893 86.4453 59.3729 86.4652C59.3798 86.4153 59.397 86.3673 59.4235 86.3243C59.4499 86.2814 59.485 86.2444 59.5265 86.2156C59.6129 86.1676 59.6801 86.2156 59.6753 86.3164V86.7196C59.6699 86.7714 59.6534 86.8213 59.6269 86.8661C59.6004 86.9108 59.5645 86.9493 59.5217 86.9788L59.1809 87.1948C59.0993 87.2428 59.0273 87.1948 59.0273 87.1132C59.0268 87.0657 59.0369 87.0187 59.0568 86.9755C59.0768 86.9324 59.106 86.8941 59.1425 86.8636C59.0422 86.8675 58.9446 86.8973 58.8593 86.95C58.6666 87.0744 58.5064 87.2429 58.3921 87.4416C58.2777 87.6403 58.2124 87.8634 58.2017 88.0924C58.2017 88.51 58.4993 88.678 58.8641 88.4668C59.1332 88.2948 59.3375 88.0381 59.4449 87.7372C59.4693 87.6649 59.5186 87.6037 59.5841 87.5644C59.6074 87.5564 59.6327 87.5564 59.6561 87.5644C59.7329 87.5644 59.7617 87.6604 59.7233 87.7756C59.563 88.2201 59.2611 88.5995 58.8641 88.8556C58.3265 89.1628 57.9041 88.9132 57.9041 88.294C57.9152 87.9554 58.0068 87.6242 58.1712 87.3279C58.3356 87.0316 58.5682 86.7787 58.8497 86.59Z" fill="white"/>
</g>
<path d="M146.901 28.1789C146.901 27.1325 146.527 26.3933 145.941 26.0429H145.917C145.307 25.7021 144.477 25.7549 143.551 26.2877L50.3153 79.9421C49.3382 80.5745 48.5245 81.4291 47.9405 82.4359C47.3566 83.4428 47.019 84.5735 46.9553 85.7357V90.0845L146.911 32.4125L146.901 28.1789Z" fill="#455A64"/>
<path opacity="0.3" d="M146.901 28.1789C146.901 27.1325 146.527 26.3933 145.941 26.0429H145.917C145.307 25.7021 144.477 25.7549 143.551 26.2877L50.3153 79.9421C49.3382 80.5745 48.5245 81.4291 47.9405 82.4359C47.3566 83.4428 47.019 84.5735 46.9553 85.7357V90.0845L146.911 32.4125L146.901 28.1789Z" fill="black"/>
<g opacity="0.5">
<path d="M51.4098 82.9805C51.8898 82.6877 52.3266 82.9229 52.3266 83.5037C52.3109 83.8204 52.22 84.1288 52.0614 84.4035C51.9028 84.6781 51.6811 84.911 51.4146 85.0829C50.9106 85.3757 50.4978 85.1405 50.4978 84.5597C50.5143 84.2431 50.6055 83.935 50.764 83.6605C50.9225 83.386 51.1438 83.1529 51.4098 82.9805Z" fill="white"/>
<path d="M53.9105 81.5357C54.4145 81.2477 54.8273 81.4781 54.8273 82.0589C54.8101 82.376 54.7186 82.6845 54.5602 82.9596C54.4017 83.2348 54.1809 83.4689 53.9153 83.6429C53.4353 83.9309 52.9985 83.7005 52.9985 83.1197C53.0139 82.8023 53.1046 82.493 53.2632 82.2176C53.4218 81.9421 53.6437 81.7084 53.9105 81.5357Z" fill="white"/>
<path d="M56.4114 80.0957C56.8914 79.8029 57.3234 80.0381 57.3282 80.6189C57.3106 80.9352 57.2189 81.2429 57.0605 81.5172C56.9021 81.7915 56.6814 82.0248 56.4162 82.1981C55.9074 82.4909 55.4994 82.2557 55.4946 81.6749C55.512 81.358 55.6041 81.0497 55.7635 80.7753C55.9228 80.5008 56.1449 80.2679 56.4114 80.0957Z" fill="white"/>
</g>
<path d="M51.4098 82.9805C51.8898 82.6877 52.3266 82.9229 52.3266 83.5037C52.3109 83.8204 52.22 84.1288 52.0614 84.4035C51.9028 84.6781 51.6811 84.911 51.4146 85.0829C50.9106 85.3757 50.4978 85.1405 50.4978 84.5597C50.5143 84.2431 50.6055 83.935 50.764 83.6605C50.9225 83.386 51.1438 83.1529 51.4098 82.9805Z" fill="#455A64"/>
<path d="M53.9105 81.5357C54.4145 81.2477 54.8273 81.4781 54.8273 82.0589C54.8101 82.376 54.7186 82.6845 54.5602 82.9596C54.4017 83.2348 54.1809 83.4689 53.9153 83.6429C53.4353 83.9309 52.9985 83.7005 52.9985 83.1197C53.0139 82.8023 53.1046 82.493 53.2632 82.2176C53.4218 81.9421 53.6437 81.7084 53.9105 81.5357Z" fill="#455A64"/>
<path d="M56.4114 80.0957C56.8914 79.8029 57.3234 80.0381 57.3282 80.6189C57.3106 80.9352 57.2189 81.2429 57.0605 81.5172C56.9021 81.7915 56.6814 82.0248 56.4162 82.1981C55.9074 82.4909 55.4994 82.2557 55.4946 81.6749C55.512 81.358 55.6041 81.0497 55.7635 80.7753C55.9228 80.5008 56.1449 80.2679 56.4114 80.0957Z" fill="#455A64"/>
<path d="M142.197 71.7677L142.139 46.2077C142.139 46.0392 142.095 45.8738 142.01 45.728C141.926 45.5822 141.805 45.4612 141.659 45.377C141.513 45.2929 141.348 45.2486 141.179 45.2487C141.011 45.2487 140.845 45.2931 140.699 45.3773L101.719 67.8269C101.354 68.0375 101.051 68.3405 100.84 68.7053C100.629 69.0701 100.519 69.484 100.519 69.9053V95.4941C100.519 95.6625 100.563 95.8279 100.648 95.9737C100.732 96.1195 100.853 96.2406 100.999 96.3247C101.145 96.4089 101.31 96.4531 101.479 96.4531C101.647 96.453 101.813 96.4087 101.959 96.3245L140.997 73.8413C141.361 73.631 141.664 73.3288 141.874 72.9649C142.085 72.601 142.196 72.1881 142.197 71.7677Z" fill="#37474F"/>
<path d="M96.4194 70.8797L52.9986 95.8829C52.6324 96.0944 52.3285 96.3988 52.1178 96.7655C51.907 97.1322 51.7969 97.548 51.7986 97.9709L51.8562 123.526C51.8564 123.695 51.9009 123.86 51.9852 124.006C52.0695 124.152 52.1907 124.273 52.3366 124.357C52.4825 124.441 52.648 124.485 52.8164 124.485C52.9849 124.485 53.1503 124.441 53.2962 124.357L96.6546 99.3965C97.0203 99.1865 97.3243 98.8838 97.5358 98.5189C97.7473 98.154 97.8589 97.7399 97.8594 97.3181V71.7101C97.8592 71.5417 97.8147 71.3763 97.7304 71.2305C97.6461 71.0847 97.5249 70.9636 97.379 70.8795C97.2331 70.7953 97.0676 70.7511 96.8992 70.7511C96.7307 70.7511 96.5653 70.7955 96.4194 70.8797Z" fill="#37474F"/>
<path opacity="0.1" d="M96.4194 70.8797L52.9986 95.8829C52.6324 96.0944 52.3285 96.3988 52.1178 96.7655C51.907 97.1322 51.7969 97.548 51.7986 97.9709L51.8562 123.526C51.8564 123.695 51.9009 123.86 51.9852 124.006C52.0695 124.152 52.1907 124.273 52.3366 124.357C52.4825 124.441 52.648 124.485 52.8164 124.485C52.9849 124.485 53.1503 124.441 53.2962 124.357L96.6546 99.3965C97.0203 99.1865 97.3243 98.8838 97.5358 98.5189C97.7473 98.154 97.8589 97.7399 97.8594 97.3181V71.7101C97.8592 71.5417 97.8147 71.3763 97.7304 71.2305C97.6461 71.0847 97.5249 70.9636 97.379 70.8795C97.2331 70.7953 97.0676 70.7511 96.8992 70.7511C96.7307 70.7511 96.5653 70.7955 96.4194 70.8797Z" fill="white"/>
<path d="M100.519 100.333V126.646C100.518 126.815 100.562 126.981 100.646 127.127C100.73 127.274 100.851 127.396 100.997 127.48C101.143 127.565 101.309 127.61 101.478 127.61C101.646 127.61 101.812 127.566 101.959 127.481L141.319 104.811C141.812 104.392 142.151 103.819 142.279 103.184L142.221 77.9789C142.221 77.8105 142.176 77.6451 142.092 77.4993C142.008 77.3535 141.886 77.2324 141.741 77.1483C141.595 77.0641 141.429 77.0199 141.261 77.0199C141.092 77.0199 140.927 77.0643 140.781 77.1485L100.519 100.333Z" fill="#37474F"/>
<path opacity="0.1" d="M100.519 100.333V126.646C100.518 126.815 100.562 126.981 100.646 127.127C100.73 127.274 100.851 127.396 100.997 127.48C101.143 127.565 101.309 127.61 101.478 127.61C101.646 127.61 101.812 127.566 101.959 127.481L141.319 104.811C141.812 104.392 142.151 103.819 142.279 103.184L142.221 77.9789C142.221 77.8105 142.176 77.6451 142.092 77.4993C142.008 77.3535 141.886 77.2324 141.741 77.1483C141.595 77.0641 141.429 77.0199 141.261 77.0199C141.092 77.0199 140.927 77.0643 140.781 77.1485L100.519 100.333Z" fill="white"/>
<path d="M51.8706 129.737L51.9234 154.635C51.9244 154.803 51.9695 154.968 52.0542 155.113C52.1389 155.258 52.2601 155.378 52.4059 155.462C52.5517 155.546 52.7168 155.589 52.8849 155.589C53.0529 155.589 53.2179 155.544 53.3634 155.46L96.6546 130.534C97.0211 130.324 97.3254 130.02 97.537 129.654C97.7485 129.289 97.8598 128.873 97.8594 128.451V103.524C97.8601 103.356 97.8162 103.19 97.7322 103.043C97.6483 102.897 97.5271 102.775 97.3811 102.69C97.235 102.606 97.0692 102.561 96.9004 102.561C96.7315 102.561 96.5656 102.605 96.4194 102.689L53.0706 127.649C52.7044 127.861 52.4005 128.165 52.1898 128.532C51.979 128.899 51.8689 129.314 51.8706 129.737Z" fill="#37474F"/>
<path d="M71.205 101.969L66.5634 105.464C65.2522 106.451 64.1671 107.706 63.3807 109.147C62.5943 110.587 62.1247 112.179 62.0034 113.816L61.5762 119.576L87.1218 104.864L85.7346 102.809C85.0314 101.767 84.0295 100.961 82.8603 100.497C81.6911 100.034 80.4092 99.9347 79.1826 100.213L76.5714 100.808L71.205 101.969Z" fill="#3343F8"/>
<path d="M68.4017 95.1677C68.5442 94.8238 68.8094 94.5449 69.1457 94.3853C69.217 94.3482 69.2928 94.3208 69.3713 94.3037C69.5965 94.2661 69.8275 94.284 70.0441 94.356C70.2608 94.4279 70.4566 94.5517 70.6145 94.7165C70.9253 95.0533 71.135 95.4709 71.2193 95.9213C71.3002 96.3702 71.35 96.824 71.3681 97.2797C71.4348 98.0877 71.5599 98.8898 71.7425 99.6797C71.8385 100.108 72.0264 100.511 72.2933 100.86C72.5601 101.209 72.8996 101.496 73.2881 101.701L73.3409 101.729C74.4689 102.289 75.6982 102.616 76.9553 102.689V104.062C77.9489 105.416 78.2273 108.008 75.6017 107.235C72.9761 106.462 71.2817 104.715 71.2817 102.997C71.2817 102.272 71.2433 101.341 71.2289 100.51C71.2049 99.3869 71.1809 98.4509 71.1809 98.4509C70.9329 98.7263 70.59 98.8978 70.2209 98.9309C70.0546 98.9648 69.8832 98.9648 69.7169 98.9309C69.4756 98.8542 69.2522 98.7296 69.0601 98.5647C68.868 98.3998 68.711 98.1978 68.5985 97.9709C68.3764 97.5224 68.2536 97.0312 68.2385 96.5309C68.1849 96.07 68.2408 95.6029 68.4017 95.1677Z" fill="#8C5C5B"/>
<path d="M69.2512 90.4253C69.7813 89.8166 70.5186 89.4266 71.32 89.3309L82.1008 90.3293C83.344 92.9693 82.3552 94.7069 82.3552 94.7069C82.5232 98.7293 82.6624 101.283 80.8912 102.128C79.6432 102.627 78.2922 102.815 76.9552 102.675C75.6981 102.601 74.4688 102.275 73.3408 101.715L73.2832 101.686C72.8948 101.479 72.5556 101.19 72.2889 100.84C72.0222 100.489 71.8341 100.085 71.7376 99.6557C71.5569 98.8738 71.4334 98.0797 71.368 97.2797C71.3499 96.824 71.3001 96.3702 71.2192 95.9213C71.1349 95.4709 70.9253 95.0533 70.6144 94.7165C70.4565 94.5517 70.2607 94.4279 70.044 94.356C69.8274 94.284 69.5964 94.2661 69.3712 94.3037C69.2927 94.3208 69.2169 94.3482 69.1456 94.3853C68.8384 92.6141 68.752 91.0541 69.2512 90.4253Z" fill="#263238"/>
<path d="M73.2018 90.7325C73.3883 91.4825 73.3397 92.2718 73.0626 92.9933C72.7797 93.7065 72.5503 94.4397 72.3762 95.1869C72.2342 95.9373 72.3386 96.7135 72.6738 97.3997C72.8417 97.7407 73.0828 98.0405 73.3798 98.2778C73.6768 98.5151 74.0225 98.684 74.3922 98.7725C75.549 99.0173 76.6818 98.3453 77.8434 98.1197C78.9585 97.9213 80.1078 98.1236 81.0882 98.6909C81.1708 98.7405 81.2649 98.7681 81.3613 98.7708C81.4576 98.7735 81.5531 98.7514 81.6385 98.7066C81.7238 98.6617 81.7962 98.5957 81.8486 98.5147C81.901 98.4338 81.9317 98.3407 81.9378 98.2445C82.077 95.9309 82.0722 92.3069 81.7314 90.6029L73.2018 90.7325Z" fill="#8C5C5B"/>
<path d="M81.549 88.6397L82.8882 87.7085C83.0281 88.1567 83.0544 88.6326 82.9647 89.0934C82.8751 89.5542 82.6723 89.9855 82.3746 90.3485C81.7624 91.0602 80.9321 91.5496 80.013 91.7405C79.0986 91.926 78.161 91.9681 77.2338 91.8653C75.875 91.7555 74.5306 91.5094 73.221 91.1309C72.6291 91.0089 72.0835 90.7228 71.6466 90.3053C71.374 89.9575 71.2187 89.5322 71.2032 89.0906C71.1877 88.649 71.3127 88.2138 71.5602 87.8477C71.8183 87.4891 72.1492 87.1891 72.5314 86.9674C72.9136 86.7457 73.3383 86.6074 73.7778 86.5613C74.6729 86.4902 75.5737 86.5615 76.4466 86.7725C77.3193 86.9843 78.2213 87.0492 79.1154 86.9645C79.564 86.9178 79.9943 86.7621 80.3691 86.5112C80.7439 86.2602 81.0517 85.9215 81.2658 85.5245C82.0242 86.7677 81.549 88.6397 81.549 88.6397Z" fill="#263238"/>
<path d="M78.165 94.8364L80.133 97.2172L78.3282 97.8556L78.165 94.8364Z" fill="#F28F8F"/>
<path d="M78.165 94.8364L80.133 97.2172L78.3282 97.8556L78.165 94.8364Z" fill="#7D4B4A"/>
<path d="M76.6769 99.0365L78.1937 99.5165C78.0959 99.6943 77.9443 99.8365 77.7606 99.9228C77.5769 100.009 77.3706 100.035 77.1713 99.9965C76.9898 99.9194 76.841 99.7811 76.7507 99.6058C76.6604 99.4305 76.6343 99.2291 76.6769 99.0365Z" fill="#F28F8F"/>
<path d="M76.6769 99.0365L78.1937 99.5165C78.0959 99.6943 77.9443 99.8365 77.7606 99.9228C77.5769 100.009 77.3706 100.035 77.1713 99.9965C76.9898 99.9194 76.841 99.7811 76.7507 99.6058C76.6604 99.4305 76.6343 99.2291 76.6769 99.0365Z" fill="#7D4B4A"/>
<path d="M77.6753 99.9485C77.521 100.002 77.355 100.012 77.1953 99.9773C77.0575 99.9216 76.9387 99.8271 76.8535 99.7053C76.7683 99.5834 76.7203 99.4395 76.7153 99.2909C76.9336 99.2532 77.1579 99.3003 77.3426 99.4225C77.5273 99.5447 77.6583 99.7329 77.7089 99.9485H77.6753Z" fill="#F28F8F"/>
<path d="M75.4913 95.3596C75.4981 95.4655 75.536 95.5669 75.6003 95.6513C75.6646 95.7356 75.7524 95.799 75.8527 95.8336C75.9529 95.8681 76.0612 95.8723 76.1638 95.8455C76.2664 95.8186 76.3587 95.7621 76.4293 95.6829C76.4998 95.6037 76.5453 95.5054 76.5602 95.4004C76.575 95.2954 76.5584 95.1884 76.5125 95.0928C76.4667 94.9972 76.3935 94.9173 76.3024 94.8631C76.2112 94.809 76.106 94.783 76.0001 94.7884C75.9291 94.7921 75.8594 94.8098 75.7953 94.8406C75.7311 94.8714 75.6737 94.9146 75.6264 94.9677C75.5791 95.0209 75.5428 95.0829 75.5196 95.1501C75.4964 95.2174 75.4868 95.2886 75.4913 95.3596Z" fill="#263238"/>
<path d="M80.0081 94.9421C80.018 95.0847 80.0833 95.2178 80.1901 95.3128C80.2968 95.4079 80.4365 95.4575 80.5793 95.4508C80.7147 95.433 80.8384 95.3648 80.9257 95.2597C81.013 95.1547 81.0575 95.0206 81.0502 94.8842C81.0429 94.7478 80.9845 94.6192 80.8865 94.524C80.7885 94.4289 80.6583 94.3742 80.5217 94.3708C80.3783 94.3795 80.244 94.4443 80.1479 94.5512C80.0518 94.6581 80.0016 94.7985 80.0081 94.9421Z" fill="#263238"/>
<path d="M80.4209 92.7629L81.6593 93.5261C81.7038 93.3758 81.7009 93.2155 81.6511 93.067C81.6013 92.9184 81.5069 92.7888 81.3809 92.6957C81.2304 92.6168 81.0609 92.5813 80.8914 92.5932C80.7218 92.605 80.559 92.6638 80.4209 92.7629Z" fill="#263238"/>
<path d="M75.7937 92.9501L74.6465 93.8381C74.586 93.693 74.5715 93.5327 74.605 93.3791C74.6385 93.2254 74.7183 93.0857 74.8337 92.9789C74.975 92.8848 75.1399 92.8322 75.3096 92.8271C75.4793 92.822 75.6471 92.8646 75.7937 92.9501Z" fill="#263238"/>
<path d="M72.6161 101.643C72.316 101.257 72.1016 100.812 71.9873 100.337C72.2669 100.913 72.7224 101.386 73.2881 101.686L73.3409 101.715C74.4689 102.275 75.6982 102.601 76.9553 102.675V103.601C76.2205 103.548 75.495 103.405 74.7953 103.174C73.939 102.879 73.1835 102.349 72.6161 101.643Z" fill="#7D4B4A"/>
<path d="M120.016 104.993L115.216 108.622C114.37 109.254 113.673 110.065 113.176 110.997C112.678 111.928 112.391 112.958 112.336 114.013L111.947 121.726L135.386 108.229L131.949 104.845C131.318 104.224 130.541 103.773 129.689 103.531C128.838 103.29 127.94 103.266 127.077 103.462L125.382 103.846L120.016 104.993Z" fill="#3343F8"/>
<path opacity="0.2" d="M120.016 104.993L115.216 108.622C114.37 109.254 113.673 110.065 113.176 110.997C112.678 111.928 112.391 112.958 112.336 114.013L111.947 121.726L135.386 108.229L131.949 104.845C131.318 104.224 130.541 103.773 129.689 103.531C128.838 103.29 127.94 103.266 127.077 103.462L125.382 103.846L120.016 104.993Z" fill="#2E2E2E"/>
<path d="M129.995 99.0989C130.812 98.5113 131.381 97.6397 131.588 96.6549C131.796 95.6702 131.629 94.6433 131.118 93.7757C131.577 93.5722 131.953 93.2183 132.184 92.7725C132.281 92.5576 132.311 92.3184 132.27 92.0861C132.229 91.8538 132.119 91.6394 131.954 91.4708C131.789 91.3022 131.577 91.1874 131.346 91.1413C131.114 91.0952 130.875 91.12 130.658 91.2125C130.778 90.865 130.779 90.4871 130.66 90.1391C130.541 89.7911 130.308 89.4931 130 89.2925C129.687 89.1244 129.327 89.068 128.978 89.1326C128.629 89.1972 128.312 89.3789 128.08 89.6477C128.089 89.4215 128.023 89.1986 127.894 89.0125C127.765 88.8264 127.58 88.6872 127.365 88.6157C126.921 88.4987 126.452 88.5273 126.026 88.6973C125.594 88.8461 125.186 89.0621 124.754 89.1773C124.007 89.3663 123.239 89.4646 122.469 89.4701C121.695 89.4786 120.936 89.6816 120.261 90.0605C119.618 90.4781 119.046 91.4525 119.397 92.2973C119.286 92.158 119.147 92.0433 118.989 91.9607C118.831 91.878 118.658 91.8292 118.48 91.8173C118.3 91.8105 118.121 91.843 117.955 91.9127C117.79 91.9823 117.641 92.0874 117.52 92.2205C118 92.5181 118.48 92.8349 118.96 93.1325C118.685 93.056 118.392 93.0719 118.127 93.1777C117.862 93.2834 117.638 93.4733 117.491 93.7181C117.267 94.2021 117.179 94.7382 117.237 95.2685C117.298 97.2842 117.656 99.2799 118.298 101.192C118.624 102.181 119.099 103.227 120.035 103.683L129.995 99.0989Z" fill="#263238"/>
<path d="M124.907 103.856L124.696 106.217C124.685 106.4 124.732 106.581 124.83 106.736C124.961 106.983 125.011 107.265 124.973 107.542C124.935 107.82 124.812 108.078 124.619 108.281C124.315 108.507 123.947 108.632 123.568 108.637C122.848 108.675 122.127 108.561 121.454 108.302C120.781 108.043 120.17 107.645 119.661 107.134C119.558 107.026 119.479 106.899 119.426 106.759C119.373 106.62 119.349 106.472 119.354 106.323L119.507 100.333L124.907 103.856Z" fill="#FFA8A7"/>
<path d="M119.982 100.645L124.907 103.856L124.72 105.949C123.566 105.75 122.472 105.294 121.518 104.614C120.947 104.137 120.505 103.523 120.237 102.828C119.968 102.134 119.881 101.382 119.982 100.645Z" fill="#F28F8F"/>
<path d="M130.274 94.2317C130.635 96.9712 130.455 99.7548 129.746 102.425C129.607 103.013 129.387 103.578 129.093 104.105C128.795 104.635 128.329 105.051 127.768 105.286C127.048 105.481 126.29 105.481 125.57 105.286C124.231 105.051 122.863 104.806 121.701 104.101C120.539 103.395 119.618 102.128 119.728 100.774C119.398 100.978 119.023 101.097 118.635 101.119C118.248 101.14 117.861 101.065 117.511 100.899C117.168 100.71 116.878 100.44 116.666 100.111C116.454 99.7828 116.327 99.4069 116.296 99.0173C116.251 98.6396 116.338 98.2578 116.544 97.9379C116.75 97.6179 117.061 97.3801 117.424 97.2653C117.654 97.2321 117.888 97.2488 118.111 97.3143C118.334 97.3797 118.54 97.4923 118.715 97.6445C119.066 97.9487 119.37 98.3029 119.618 98.6957C119.733 98.8853 119.887 99.0488 120.069 99.1757C120.16 99.2389 120.268 99.2727 120.379 99.2727C120.489 99.2727 120.597 99.2389 120.688 99.1757C120.765 99.0826 120.821 98.9738 120.852 98.8569C120.882 98.74 120.887 98.6178 120.866 98.4989L120.789 96.7853C120.783 96.6535 120.816 96.5229 120.883 96.4095C120.951 96.296 121.05 96.2048 121.168 96.1469C121.522 95.9541 121.794 95.6406 121.936 95.2637C122.059 94.9322 122.131 94.5845 122.152 94.2317C122.157 94.1658 122.178 94.1021 122.212 94.0456C122.246 93.9892 122.293 93.9415 122.349 93.9065C122.405 93.8715 122.469 93.8501 122.535 93.8441C122.601 93.838 122.667 93.8475 122.728 93.8717C125.148 94.7566 127.781 94.8822 130.274 94.2317Z" fill="#FFA8A7"/>
<path d="M126.501 98.3884L128.047 100.985L126.208 101.331L126.501 98.3884Z" fill="#F28F8F"/>
<path d="M124.432 102.214L125.829 102.896C125.709 103.053 125.541 103.167 125.351 103.221C125.16 103.275 124.957 103.265 124.773 103.193C124.612 103.094 124.491 102.943 124.428 102.764C124.366 102.586 124.368 102.392 124.432 102.214Z" fill="#F28F8F"/>
<path opacity="0.3" d="M124.432 102.214L125.829 102.896C125.709 103.053 125.541 103.167 125.351 103.221C125.16 103.275 124.957 103.265 124.773 103.193C124.612 103.094 124.491 102.943 124.428 102.764C124.366 102.586 124.368 102.392 124.432 102.214Z" fill="black"/>
<path d="M125.258 103.251C125.097 103.283 124.929 103.266 124.778 103.203C124.65 103.131 124.546 103.023 124.48 102.892C124.413 102.762 124.386 102.614 124.403 102.469C124.604 102.468 124.798 102.536 124.955 102.661C125.13 102.81 125.239 103.022 125.258 103.251Z" fill="#F28F8F"/>
<path d="M123.842 98.4941C123.833 98.5979 123.855 98.7021 123.905 98.7935C123.955 98.885 124.031 98.9595 124.123 99.0077C124.216 99.056 124.32 99.0758 124.424 99.0647C124.528 99.0536 124.626 99.0121 124.706 98.9453C124.786 98.8786 124.844 98.7897 124.874 98.6897C124.904 98.5898 124.903 98.4833 124.872 98.3837C124.841 98.2841 124.782 98.1959 124.701 98.1301C124.62 98.0643 124.522 98.024 124.418 98.0141C124.348 98.0075 124.278 98.0147 124.212 98.0353C124.145 98.0559 124.083 98.0895 124.03 98.1341C123.976 98.1787 123.932 98.2335 123.9 98.2953C123.868 98.3571 123.848 98.4246 123.842 98.4941Z" fill="#263238"/>
<path d="M128.267 98.7676C128.258 98.8713 128.28 98.9752 128.33 99.0665C128.38 99.1577 128.456 99.2321 128.548 99.2804C128.64 99.3287 128.745 99.3487 128.848 99.3379C128.952 99.3272 129.05 99.286 129.13 99.2198C129.21 99.1535 129.269 99.065 129.299 98.9655C129.329 98.8659 129.329 98.7597 129.299 98.6601C129.269 98.5605 129.21 98.472 129.13 98.4058C129.05 98.3395 128.952 98.2984 128.848 98.2876C128.778 98.2804 128.708 98.2871 128.641 98.3074C128.574 98.3276 128.511 98.3611 128.457 98.4058C128.403 98.4505 128.358 98.5055 128.326 98.5676C128.293 98.6297 128.273 98.6977 128.267 98.7676Z" fill="#263238"/>
<path d="M128.987 96.7277L130.072 97.6493C130.137 97.5107 130.159 97.3553 130.133 97.2043C130.107 97.0532 130.036 96.9137 129.928 96.8045C129.795 96.704 129.635 96.6435 129.469 96.6299C129.302 96.6163 129.135 96.6502 128.987 96.7277Z" fill="#263238"/>
<path d="M124.499 96.2093L123.251 96.9005C123.215 96.751 123.226 96.5941 123.282 96.4508C123.338 96.3075 123.436 96.1847 123.563 96.0989C123.714 96.0276 123.882 96.0001 124.047 96.0197C124.213 96.0392 124.369 96.1049 124.499 96.2093Z" fill="#263238"/>
<path d="M85.0434 124.035C84.837 124.515 84.2706 124.745 83.997 125.192C83.8906 125.364 83.8332 125.563 83.8309 125.766C83.8287 125.969 83.8817 126.169 83.9843 126.344C84.0869 126.519 84.2352 126.663 84.4133 126.76C84.5914 126.857 84.7927 126.904 84.9954 126.896C85.1967 126.885 85.3915 126.821 85.5601 126.711C85.7287 126.6 85.8651 126.447 85.9554 126.267C86.0418 126.69 86.0418 127.126 85.9554 127.549C85.9172 127.765 85.823 127.967 85.6824 128.135C85.5418 128.304 85.3596 128.432 85.1538 128.509C85.4522 128.817 85.6569 129.204 85.7442 129.625C85.8315 130.045 85.7978 130.481 85.6471 130.883C85.4963 131.285 85.2347 131.636 84.8925 131.896C84.5503 132.155 84.1416 132.312 83.7138 132.349C83.877 133.515 83.1186 134.777 82.1538 135.459C81.161 136.108 79.9715 136.386 78.7938 136.246C77.6195 136.1 76.4766 135.765 75.4098 135.252C73.7716 135.876 72.018 136.138 70.269 136.021C69.1602 135.915 68.0034 135.617 67.2354 134.811C66.4674 134.005 66.2754 132.569 67.1058 131.816C66.8428 131.974 66.5416 132.058 66.2346 132.058C65.9276 132.058 65.6265 131.974 65.3634 131.816C65.1049 131.678 64.8928 131.467 64.7541 131.209C64.6153 130.951 64.5561 130.658 64.5838 130.366C64.6115 130.074 64.725 129.798 64.9099 129.57C65.0947 129.343 65.3427 129.176 65.6226 129.089C65.428 128.965 65.2703 128.791 65.1656 128.585C65.061 128.379 65.0133 128.149 65.0274 127.918C65.0639 127.698 65.1602 127.492 65.3058 127.323C65.4514 127.153 65.6407 127.027 65.853 126.958C65.7948 127.148 65.7909 127.35 65.8418 127.542C65.8927 127.733 65.9964 127.907 66.141 128.043C66.2954 128.158 66.481 128.225 66.6736 128.233C66.8663 128.242 67.057 128.192 67.221 128.091C67.3735 127.983 67.5017 127.844 67.5976 127.684C67.6934 127.524 67.7548 127.345 67.7778 127.16C67.8233 126.788 67.8233 126.413 67.7778 126.041C67.6003 124.76 67.7269 123.454 68.1474 122.23C68.3623 121.62 68.728 121.073 69.2105 120.642C69.693 120.211 70.2767 119.908 70.9074 119.763C71.3942 118.261 72.4232 116.995 73.7937 116.211C75.1641 115.427 76.7774 115.182 78.3186 115.524C79.6002 115.808 80.8434 116.571 81.357 117.776C81.9093 117.661 82.4733 117.612 83.037 117.632C83.5934 117.624 84.1327 117.824 84.549 118.193C84.751 118.382 84.8909 118.628 84.95 118.898C85.0092 119.168 84.9848 119.449 84.8802 119.705C84.7122 120.051 84.357 120.363 84.4386 120.737C84.5202 121.112 84.8802 121.217 85.0578 121.496C85.131 121.634 85.1692 121.788 85.1692 121.945C85.1692 122.101 85.131 122.255 85.0578 122.393C84.9165 122.671 84.7354 122.926 84.5202 123.152C84.333 123.368 84.1314 123.632 84.237 123.915C84.3426 124.198 84.8754 124.294 85.0434 124.035Z" fill="#263238"/>
<path d="M80.0753 137.105C79.6348 137.41 79.1021 137.553 78.5681 137.508C77.2603 137.507 75.9706 137.202 74.7999 136.619C73.6292 136.037 72.6091 135.191 71.8193 134.148L73.3169 134.019V129.209L78.5297 131.22V134.004H79.8641C80.1398 134.343 80.3557 134.726 80.5025 135.137C80.6324 135.471 80.6611 135.836 80.5852 136.186C80.5092 136.535 80.3319 136.855 80.0753 137.105Z" fill="#F28F8F"/>
<path d="M73.7009 129.349C75.2609 132.382 76.2305 132.445 78.5441 132.709V131.211L73.7009 129.349Z" fill="#D96E6E"/>
<path d="M83.1473 122.345C83.5991 124.631 83.6267 126.981 83.2289 129.277C83.0753 130.136 82.8257 131.053 82.1441 131.6C81.3041 132.277 80.0993 132.176 79.0289 132.041C77.8541 131.947 76.6986 131.687 75.5969 131.269C75.0491 131.054 74.5523 130.727 74.1389 130.309C73.7255 129.891 73.4045 129.39 73.1969 128.84C72.902 128.999 72.5626 129.056 72.2317 129.003C71.9009 128.949 71.5972 128.787 71.3681 128.542C70.9214 128.035 70.6815 127.379 70.6961 126.704C70.6597 126.402 70.7016 126.096 70.8176 125.815C70.9336 125.535 71.1198 125.288 71.3585 125.101C71.5412 125.003 71.7436 124.948 71.9506 124.939C72.1575 124.931 72.3637 124.97 72.5537 125.053C72.9345 125.218 73.275 125.463 73.5521 125.773C73.6889 125.932 73.8511 126.069 74.0321 126.176C74.1219 126.23 74.2248 126.259 74.3297 126.259C74.4346 126.259 74.5375 126.23 74.6273 126.176C74.7208 126.086 74.7923 125.977 74.8365 125.855C74.8806 125.734 74.8961 125.603 74.8817 125.475C74.8635 124.415 75.104 123.368 75.5825 122.422C76.1201 121.515 77.2049 120.857 78.2225 121.131C78.6617 121.331 79.1222 121.481 79.5953 121.577C79.9819 121.557 80.3562 121.434 80.6801 121.222C80.9054 121.07 81.1662 120.978 81.4373 120.955C81.7084 120.932 81.9809 120.979 82.2285 121.092C82.4761 121.205 82.6907 121.379 82.8515 121.599C83.0124 121.818 83.1142 122.075 83.1473 122.345Z" fill="#F28F8F"/>
<path d="M79.8595 125.187L81.2467 127.52L79.5955 127.827L79.8595 125.187Z" fill="#F28F8F"/>
<path d="M79.8595 125.187L81.2467 127.52L79.5955 127.827L79.8595 125.187Z" fill="#D96E6E"/>
<path d="M78.0018 128.614L79.2594 129.224C79.1506 129.367 78.9979 129.471 78.8246 129.519C78.6513 129.568 78.4669 129.558 78.2994 129.493C78.1563 129.403 78.0486 129.266 77.9944 129.106C77.9402 128.946 77.9428 128.772 78.0018 128.614Z" fill="#F28F8F"/>
<path d="M78.0018 128.614L79.2594 129.224C79.1506 129.367 78.9979 129.471 78.8246 129.519C78.6513 129.568 78.4669 129.558 78.2994 129.493C78.1563 129.403 78.0486 129.266 77.9944 129.106C77.9402 128.946 77.9428 128.772 78.0018 128.614Z" fill="#D96E6E"/>
<path d="M78.741 129.574C78.5945 129.606 78.4416 129.591 78.3042 129.531C78.1897 129.467 78.0967 129.37 78.0369 129.253C77.9772 129.136 77.9533 129.004 77.9682 128.873C78.1625 128.868 78.3515 128.938 78.4955 129.068C78.6395 129.199 78.7275 129.38 78.741 129.574Z" fill="#F28F8F"/>
<path d="M78.741 129.574C78.5945 129.606 78.4416 129.591 78.3042 129.531C78.1897 129.467 78.0967 129.37 78.0369 129.253C77.9772 129.136 77.9533 129.004 77.9682 128.873C78.1625 128.868 78.3515 128.938 78.4955 129.068C78.6395 129.199 78.7275 129.38 78.741 129.574Z" fill="#C75555"/>
<path d="M77.469 125.278C77.4589 125.373 77.4772 125.469 77.5217 125.553C77.5662 125.637 77.6347 125.707 77.7187 125.752C77.8027 125.797 77.8982 125.816 77.9931 125.807C78.088 125.798 78.178 125.76 78.2516 125.7C78.3252 125.639 78.379 125.558 78.4063 125.466C78.4335 125.375 78.433 125.278 78.4046 125.186C78.3763 125.095 78.3215 125.015 78.2472 124.955C78.1729 124.895 78.0824 124.859 77.9874 124.851C77.8623 124.84 77.738 124.879 77.641 124.959C77.5441 125.039 77.4824 125.153 77.469 125.278Z" fill="#263238"/>
<path d="M81.4482 125.523C81.4361 125.648 81.4735 125.773 81.5525 125.871C81.6315 125.969 81.7457 126.032 81.8706 126.046C81.9965 126.058 82.1221 126.02 82.2201 125.94C82.3181 125.86 82.3805 125.745 82.3938 125.619C82.4066 125.492 82.3682 125.364 82.2872 125.265C82.2062 125.166 82.0891 125.104 81.9618 125.091C81.8345 125.078 81.7074 125.117 81.6084 125.198C81.5093 125.279 81.4466 125.396 81.4338 125.523H81.4482Z" fill="#263238"/>
<path d="M82.0962 123.689L83.0562 124.52C83.1152 124.395 83.1345 124.254 83.1113 124.118C83.0881 123.981 83.0236 123.855 82.9266 123.757C82.8068 123.672 82.6666 123.622 82.5205 123.61C82.3745 123.598 82.228 123.625 82.0962 123.689Z" fill="#263238"/>
<path d="M78.0594 123.228L76.9362 123.843C76.9049 123.708 76.9152 123.567 76.9658 123.439C77.0163 123.31 77.1048 123.2 77.2194 123.123C77.3551 123.059 77.506 123.035 77.6547 123.054C77.8034 123.073 77.9437 123.133 78.0594 123.228Z" fill="#263238"/>
<path d="M81.1746 134.005L81.5922 139.208L85.1202 137.173C84.3954 135.286 83.2194 134.005 81.1746 134.005Z" fill="#F28F8F"/>
<path d="M81.1746 134.005H79.8786C80.1542 134.343 80.3701 134.726 80.517 135.137C80.6468 135.471 80.6756 135.836 80.5996 136.186C80.5236 136.536 80.3463 136.855 80.0898 137.105C79.6492 137.41 79.1165 137.553 78.5826 137.509C77.2748 137.507 75.9851 137.202 74.8144 136.62C73.6436 136.037 72.6235 135.191 71.8338 134.149L67.3794 134.533C67.3794 134.533 67.4802 143.921 67.4562 145.275C67.4335 145.936 67.4834 146.598 67.605 147.248L84.093 137.753C83.3472 136.342 82.3594 135.074 81.1746 134.005Z" fill="#323FD0"/>
<path opacity="0.6" d="M81.1746 134.005H79.8786C80.1542 134.343 80.3701 134.726 80.517 135.137C80.6468 135.471 80.6756 135.836 80.5996 136.186C80.5236 136.536 80.3463 136.855 80.0898 137.105C79.6492 137.41 79.1165 137.553 78.5826 137.509C77.2748 137.507 75.9851 137.202 74.8144 136.62C73.6436 136.037 72.6235 135.191 71.8338 134.149L67.3794 134.533C67.3794 134.533 67.4802 143.921 67.4562 145.275C67.4335 145.936 67.4834 146.598 67.605 147.248L84.093 137.753C83.3472 136.342 82.3594 135.074 81.1746 134.005Z" fill="white"/>
<path d="M67.3794 134.547C63.1074 135.987 64.1058 139.63 66.285 143.528C66.8274 144.488 67.4802 145.697 68.157 146.945L72.7554 144.296C71.1042 140.249 68.8386 135.286 67.3794 134.547Z" fill="#F28F8F"/>
<path d="M128.483 77.3693C129.027 78.2902 129.496 79.2533 129.885 80.2493L131.594 79.2893L130.034 76.2461C129.745 75.6829 129.278 75.2305 128.707 74.9589C128.135 74.6874 127.49 74.6117 126.871 74.7437L126.328 74.8589C127.182 75.5691 127.911 76.4178 128.483 77.3693Z" fill="#455A64"/>
<path d="M116.766 82.3373C116.654 82.0438 116.482 81.7768 116.262 81.553C116.041 81.3291 115.777 81.1533 115.485 81.0365C115.167 80.9455 114.833 80.9272 114.507 80.9829C114.182 81.0386 113.873 81.1668 113.603 81.3581C113.393 81.4967 113.198 81.6576 113.022 81.8381C112.32 82.9747 111.948 84.2843 111.947 85.6205V90.5741L117.578 87.3341L117.174 84.1613C117.122 83.5376 116.984 82.924 116.766 82.3373Z" fill="#455A64"/>
<path d="M128.483 77.3693C127.912 76.4109 127.184 75.5557 126.328 74.8397L122.584 75.6461L118.744 77.2349L115.149 79.6349C114.283 80.2078 113.552 80.963 113.008 81.8477C113.184 81.6673 113.379 81.5064 113.589 81.3677C113.858 81.1765 114.167 81.0482 114.493 80.9926C114.819 80.9369 115.153 80.9552 115.47 81.0461C115.762 81.1629 116.027 81.3388 116.247 81.5626C116.468 81.7865 116.64 82.0535 116.752 82.3469C116.97 82.9352 117.108 83.5505 117.16 84.1757L117.563 87.3485L129.87 80.2589C129.486 79.2601 129.022 78.2937 128.483 77.3693Z" fill="#455A64"/>
<path opacity="0.3" d="M128.483 77.3693C129.027 78.2902 129.496 79.2533 129.885 80.2493L131.594 79.2893L130.034 76.2461C129.745 75.6829 129.278 75.2305 128.707 74.9589C128.135 74.6874 127.49 74.6117 126.871 74.7437L126.328 74.8589C127.182 75.5691 127.911 76.4178 128.483 77.3693Z" fill="white"/>
<path opacity="0.3" d="M116.766 82.3373C116.654 82.0438 116.482 81.7768 116.262 81.553C116.041 81.3291 115.777 81.1533 115.485 81.0365C115.167 80.9455 114.833 80.9272 114.507 80.9829C114.182 81.0386 113.873 81.1668 113.603 81.3581C113.393 81.4967 113.198 81.6576 113.022 81.8381C112.32 82.9747 111.948 84.2843 111.947 85.6205V90.5741L117.578 87.3341L117.174 84.1613C117.122 83.5376 116.984 82.924 116.766 82.3373Z" fill="white"/>
<path opacity="0.4" d="M128.483 77.3693C127.912 76.4109 127.184 75.5557 126.328 74.8397L122.584 75.6461L118.744 77.2349L115.149 79.6349C114.283 80.2078 113.552 80.963 113.008 81.8477C113.184 81.6673 113.379 81.5064 113.589 81.3677C113.858 81.1765 114.167 81.0482 114.493 80.9926C114.819 80.9369 115.153 80.9552 115.47 81.0461C115.762 81.1629 116.027 81.3388 116.247 81.5626C116.468 81.7865 116.64 82.0535 116.752 82.3469C116.97 82.9352 117.108 83.5505 117.16 84.1757L117.563 87.3485L129.87 80.2589C129.486 79.2601 129.022 78.2937 128.483 77.3693Z" fill="white"/>
<path d="M128.301 68.9693C129.069 68.1918 129.545 67.1732 129.649 66.0853C129.753 64.9975 129.479 63.9071 128.872 62.9981C129.195 62.8645 129.467 62.6325 129.65 62.3351C129.832 62.0377 129.916 61.6901 129.89 61.3421C129.855 60.9941 129.709 60.6664 129.474 60.4073C129.239 60.1482 128.927 59.9711 128.584 59.9021C127.998 59.872 127.411 59.9551 126.856 60.1469C125.871 60.3245 124.861 60.3245 123.875 60.1469C122.887 60.0077 121.907 59.7917 120.914 59.7197C119.917 59.6132 118.909 59.7567 117.981 60.1373C117.519 60.331 117.108 60.6283 116.779 61.0061C116.451 61.3839 116.213 61.8323 116.085 62.3165C115.317 62.1101 114.405 62.5997 113.911 63.2237C113.445 63.875 113.195 64.6553 113.195 65.4557C113.167 66.2477 113.277 67.0397 113.315 67.8557C113.389 68.6504 113.287 69.4517 113.018 70.2029C112.658 71.0573 111.947 71.7581 111.722 72.6605C111.618 73.0768 111.624 73.513 111.74 73.9262C111.856 74.3394 112.077 74.7154 112.382 75.0171C112.687 75.3188 113.066 75.5359 113.48 75.647C113.894 75.7582 114.331 75.7595 114.746 75.6509C114.577 75.0253 114.499 74.3787 114.515 73.7309C114.592 74.6045 115.475 75.2861 116.291 75.5789C117.136 75.8216 118.019 75.8998 118.893 75.8093L121.975 75.6893L125.57 75.5453C126.211 75.5628 126.848 75.4535 127.447 75.2237C127.944 74.9521 128.361 74.5538 128.656 74.0691C128.95 73.5844 129.111 73.0306 129.122 72.4637C129.102 71.2534 128.823 70.0616 128.301 68.9693Z" fill="#263238"/>
<path d="M123.899 73.9757V77.2541C123.899 77.2541 126.583 78.9677 125.45 79.8749C123.323 81.5837 118.759 77.2349 118.759 77.2349V71.7773L123.899 73.9757Z" fill="#FFA8A7"/>
<path d="M118.759 71.7773C119.551 74.1293 122.426 75.9101 123.899 76.2653V73.9757L118.759 71.7773Z" fill="#F28F8F"/>
<path d="M119.373 68.0525C119.445 68.4595 119.464 68.8741 119.431 69.2861C119.389 69.5985 119.245 69.8885 119.023 70.1117C118.915 70.2174 118.783 70.2949 118.638 70.3376C118.493 70.3803 118.34 70.3868 118.192 70.3565C118.269 69.9504 118.188 69.5302 117.964 69.1826C117.74 68.835 117.391 68.5866 116.99 68.4887C116.588 68.3908 116.164 68.4508 115.806 68.6563C115.447 68.8619 115.181 69.1973 115.063 69.5933C114.993 69.8801 114.987 70.1787 115.045 70.4681C115.103 70.7575 115.224 71.0307 115.399 71.2685C115.755 71.742 116.217 72.1264 116.747 72.3917C117.05 72.4915 117.378 72.4824 117.674 72.3657C117.97 72.2491 118.217 72.0324 118.37 71.7533C119.939 73.7405 122.69 75.2285 125.229 75.0173C125.931 74.9762 126.607 74.7365 127.178 74.3261C128.138 73.5773 128.215 72.4493 128.339 71.3309C128.52 69.9166 128.509 68.4845 128.306 67.0733C128.046 65.1012 127.093 63.2858 125.618 61.9517C124.739 66.1805 120.875 67.7405 119.373 68.0525Z" fill="#FFA8A7"/>
<path d="M124.706 67.5676L126.458 69.7276L124.826 70.2892L124.706 67.5676Z" fill="#F28F8F"/>
<path d="M123.333 71.3405L124.696 71.7725C124.609 71.9337 124.471 72.0618 124.303 72.1372C124.136 72.2126 123.949 72.2312 123.77 72.1901C123.61 72.1207 123.479 71.9982 123.4 71.8433C123.32 71.6884 123.296 71.5107 123.333 71.3405Z" fill="#F28F8F"/>
<path opacity="0.3" d="M123.333 71.3405L124.696 71.7725C124.609 71.9337 124.471 72.0618 124.303 72.1372C124.136 72.2126 123.949 72.2312 123.77 72.1901C123.61 72.1207 123.479 71.9982 123.4 71.8433C123.32 71.6884 123.296 71.5107 123.333 71.3405Z" fill="black"/>
<path d="M124.235 72.1661C124.09 72.2112 123.934 72.2112 123.789 72.1661C123.662 72.1188 123.553 72.0344 123.475 71.924C123.397 71.8135 123.354 71.6821 123.352 71.5469C123.533 71.517 123.718 71.5528 123.875 71.6477C123.968 71.7046 124.048 71.78 124.109 71.8693C124.171 71.9585 124.214 72.0595 124.235 72.1661Z" fill="#F28F8F"/>
<path d="M122.315 68.0189C122.321 68.1124 122.354 68.2023 122.41 68.2773C122.466 68.3524 122.543 68.4094 122.631 68.4413C122.719 68.4733 122.814 68.4788 122.905 68.4571C122.997 68.4355 123.079 68.3877 123.144 68.3195C123.208 68.2514 123.251 68.1659 123.267 68.0737C123.283 67.9814 123.272 67.8864 123.235 67.8004C123.198 67.7144 123.137 67.641 123.059 67.5895C122.981 67.5379 122.889 67.5103 122.795 67.5101C122.73 67.51 122.665 67.5233 122.605 67.5492C122.545 67.5751 122.49 67.6131 122.445 67.6607C122.4 67.7084 122.366 67.7648 122.343 67.8264C122.321 67.888 122.311 67.9535 122.315 68.0189Z" fill="#263238"/>
<path d="M126.367 67.6781C126.372 67.7716 126.405 67.8614 126.461 67.9365C126.517 68.0115 126.594 68.0686 126.682 68.1005C126.77 68.1325 126.866 68.138 126.957 68.1163C127.048 68.0947 127.131 68.0468 127.195 67.9787C127.259 67.9106 127.302 67.8251 127.318 67.7329C127.335 67.6406 127.324 67.5456 127.287 67.4596C127.25 67.3735 127.188 67.3002 127.11 67.2486C127.032 67.197 126.94 67.1695 126.847 67.1693C126.781 67.1692 126.716 67.1825 126.656 67.2084C126.596 67.2343 126.542 67.2723 126.497 67.3199C126.452 67.3676 126.417 67.424 126.395 67.4856C126.372 67.5472 126.363 67.6127 126.367 67.6781Z" fill="#263238"/>
<path d="M126.75 65.7341L127.859 66.4301C127.901 66.2953 127.9 66.1508 127.856 66.0167C127.812 65.8826 127.728 65.7654 127.614 65.6813C127.48 65.6082 127.328 65.5743 127.175 65.5837C127.022 65.593 126.875 65.6451 126.75 65.7341Z" fill="#263238"/>
<path d="M122.584 65.8493L121.543 66.6461C121.488 66.5152 121.475 66.3707 121.506 66.2323C121.537 66.0939 121.61 65.9685 121.715 65.8733C121.843 65.7884 121.993 65.7411 122.146 65.7369C122.3 65.7326 122.452 65.7716 122.584 65.8493Z" fill="#263238"/>
</svg>
